<svg xmlns="http://www.w3.org/2000/svg" fill="none" height="400" width="400">
    <path fill="#fff" d="M275.132 324.828c8.188 3.96 7.908 20.244-.404 23.656 5.596 2.708 11.89-2.872 11.89-11.738s-6.128-14.112-11.486-11.918ZM220.79 363.344c8.776 4.068 8.884 21.568.19 25.884 5.986 2.776 12.722-3.262 12.722-12.988 0-10.094-7.012-15.82-12.912-12.896ZM191.384 288.256c7.312 3.632 7.316 18.412.01 22.058 5.064 2.52 10.904-2.592 10.904-11.032 0-8.716-5.99-13.476-10.914-11.026Z"/>
    <path fill="#fff" d="M188.684 287.606c4.53 0 8.202 5.23 8.202 11.682s-3.672 11.68-8.202 11.68c-4.53 0-8.202-5.23-8.202-11.68 0-6.45 3.672-11.68 8.202-11.68v-.002Z"/>
    <path fill="#0a0430" d="m194.098 286.6-5.414.004c-5.074 0-9.202 5.69-9.202 12.682s4.126 12.68 9.202 12.68l5.414-.006c5.074 0 9.202-5.688 9.202-12.68s-4.128-12.68-9.202-12.68Zm-12.616 12.686c0-5.89 3.23-10.682 7.202-10.682s7.202 4.792 7.202 10.682c0 5.89-3.23 10.68-7.202 10.68s-7.202-4.792-7.202-10.68Zm12.184 10.656c5.624-5.012 5.622-16.318-.01-21.322 4.674-.436 7.644 5.35 7.644 10.66 0 5.392-3.008 11.074-7.634 10.662Z"/>
    <path fill="#fff" d="M272.188 324.14c4.942 0 8.946 5.564 8.946 12.426s-4.006 12.426-8.946 12.426c-4.94 0-8.948-5.564-8.948-12.426s4.006-12.426 8.948-12.426Z"/>
    <path fill="#0a0430" d="M277.672 323.32c-.866 0-4.448-.18-5.482-.18-5.486 0-9.948 6.024-9.948 13.426s4.462 13.426 9.948 13.426c.866 0 4.448.18 5.482.18 5.484 0 9.948-6.024 9.948-13.426s-4.462-13.426-9.948-13.426Zm-13.43 13.248c0-6.3 3.564-11.426 7.948-11.426s7.948 5.126 7.948 11.426-3.566 11.426-7.948 11.426c-4.382 0-7.948-5.126-7.948-11.426Zm12.966 11.586c6.382-5.054 6.608-17.364.41-22.834 4.914-.088 8.002 5.896 8.002 11.426 0 5.676-3.29 11.832-8.412 11.408Z"/>
    <path fill="#fff" d="M217.762 362.662c5.354 0 9.692 6.12 9.692 13.67S223.114 390 217.762 390s-9.692-6.12-9.692-13.67 4.34-13.668 9.692-13.668Z"/>
    <path fill="#0a0430" d="M224.008 361.57c-1.124 0-5.2.09-6.246.09-5.896 0-10.694 6.582-10.694 14.668 0 8.086 4.796 14.67 10.694 14.67 1.124 0 5.2-.09 6.246-.09 5.896 0 10.694-6.582 10.694-14.668 0-8.086-4.796-14.67-10.694-14.67Zm-14.94 14.76c0-6.986 3.9-12.668 8.694-12.668 4.794 0 8.692 5.684 8.692 12.668 0 6.984-3.9 12.67-8.692 12.67s-8.694-5.684-8.694-12.67Zm14.24 12.538c6.954-5.812 6.822-19.64-.192-25.23 5.738-.858 9.584 6.03 9.584 12.602 0 6.438-3.73 13.274-9.392 12.628Z"/>
    <path fill="#fff" d="M102.084 330.288c-.916 0-1.8.196-2.632.558 7.69 4.588 7.132 20.332-.838 23.804 6.116 3.642 12.416-2.956 12.416-11.686 0-7-4.004-12.674-8.946-12.674v-.002Z"/>
    <path fill="#fff" d="M95.982 329.856c4.942 0 8.948 5.674 8.948 12.674 0 7-4.006 12.676-8.948 12.676s-8.948-5.674-8.948-12.674c0-7 4.006-12.674 8.948-12.674v-.002Z"/>
    <path fill="#0a0430" d="M102.084 329.288c-.886 0-4.856-.432-6.102-.432-5.484 0-9.948 6.134-9.948 13.674 0 7.54 4.462 13.676 9.948 13.676.888 0 4.858.43 6.102.43 5.484 0 9.948-6.134 9.948-13.674 0-7.54-4.462-13.674-9.948-13.674Zm-14.048 13.244c0-6.438 3.564-11.674 7.948-11.674s7.948 5.238 7.948 11.674c0 6.436-3.566 11.676-7.948 11.676-4.382 0-7.948-5.238-7.948-11.676Zm14.048 12.106c-.434 0-.862-.052-1.276-.152 6.448-4.94 6.888-17.396.848-23.182 5.138-.39 8.376 5.866 8.376 11.658 0 6.438-3.566 11.674-7.948 11.674v.002Z"/>
    <path fill="#0a0430" d="M227.106 363.966c-4.152 0-8.332-.548-12.462-1.634-40.582-8.606-81.402-19.92-121.208-33.604-2.562-.728-5.188-2.794-5.796-3.806-1.03-1.716-1.596-3.67-1.596-5.504-1.558-23.286 16.414-45.862 40.066-50.162a2.486 2.486 0 0 1 .89 4.89c-20.886 3.798-37.366 24.454-35.99 45.108a5.975 5.975 0 0 0 .746 2.852c.988.93 2.054 1.562 3.174 1.882 39.742 13.658 80.366 24.918 120.866 33.51 4.526 1.188 8.996 1.666 13.396 1.446 10.004-1.566 14.874-5.394 17.546-6.85 31.224-17.022 32.896-22.914 32.982-23.512-.04-.01-.16-.1-.392-.21-6.868-3.434-14.154-5.958-21.168-9.466-12.884-5.944-36.852-15.588-64.694-27.012-4.988-1.656-9.258-4.766-10.972-6.998-3.342-4.344-3.648-10.824.704-14.172a2.485 2.485 0 1 1 3.03 3.94c-2.058 1.584-1.41 5.034.144 7.12 2.242 2.416 5.208 4.25 8.82 5.452 15.704 6.476 73.188 30.104 86.316 36.668 2.696 1.282 3.156 3.366 3.186 4.492.064 2.34.226 8.54-35.578 28.062-2.2 1.2-7.764 5.644-19.29 7.416-.412.064-2.084.09-2.714.09l-.006.002Z"/>
    <path fill="#fff" d="m154.138 140.228 153.094 54.428-18.64 71.328c-.498 1.988-2.486 3.23-4.722 2.734l-114.074-28.332-15.658-100.158Z"/>
    <path fill="#fff" d="m59.2 164.088 94.938-23.858 15.658 100.156-63.872 23.61c-7.456 2.734-15.906-.994-18.64-8.45 0-.202-27.266-91.458-28.084-91.458Z"/>
    <path fill="#0a0430" d="M155.374 142.064c-1.238-8.05-3.26-16.66-10.868-20.928l1.928-.394a4.97 4.97 0 1 0-1.992-9.74L35.09 133.37a4.97 4.97 0 1 0 1.992 9.74l7.124-1.458c8.666 5.03 11.528 14.018 14.538 23.482a1.001 1.001 0 0 0 1.906-.606c-2.926-9.196-5.716-17.962-13.612-23.456l94.166-19.26c8.774 3.288 10.862 11.9 12.194 20.556a1 1 0 1 0 1.976-.304Z"/>
    <path fill="#0a0430" d="M307.566 193.714 154.108 139.23l-95.15 23.888a1 1 0 0 0-.516 1.62c2.19 4.474 27.642 90.784 27.842 90.808 0 1.278 2.67 6.498 8.14 8.958a15.627 15.627 0 0 0 11.846.43l63.584-23.502 113.8 28.262c2.736.61 5.266-.9 5.906-3.456l18.64-71.328a1.004 1.004 0 0 0-.634-1.196Zm-240.614-9.076c-3.78-12.298-5.516-17.58-6.456-19.846l92.822-23.328 3.102 19.844-88.77 22.686a1.002 1.002 0 0 0-.698.644Zm.346 1.126a.996.996 0 0 0 .846.168l88.584-22.638 2.41 15.41-86.344 25.124a5272.157 5272.157 0 0 0-5.496-18.064Zm38.28 77.292c-6.892 2.53-14.72-.87-17.314-7.738l-14.89-49.58 86.078-25.044 9.23 59.036-63.104 23.326Zm182.042 2.684c-.376 1.504-1.894 2.366-3.51 2.006l-113.43-28.172-9.176-58.702 136.664 44.51-10.546 40.358h-.002Zm11.002-42.1-137.464-44.984-2.37-15.15 143.374 46.588-3.54 13.546Zm4.046-15.484L158.442 161.29l-3.058-19.558L306.03 195.29l-3.362 12.866Z"/>
    <path fill="#fff" d="m233.668 220.752 73.068-25.102-18.888 71.328c-.498 1.74-1.74 3.23-3.23 3.976l-58.902 26.842 7.952-77.044Z"/>
    <path fill="#fff" d="m59.2 164.088 174.716 55.67c1.74.498 2.734 1.988 2.486 3.728l-7.704 69.836c-.248 2.734-2.734 4.722-5.468 4.224L99.712 271.202c-5.22-.994-9.196-4.97-10.686-9.942l-29.824-97.174-.002.002Z"/>
    <path fill="#0a0430" d="m306.41 194.704-71.248 24.478-175.658-56.046a1 1 0 0 0-1.26 1.246l29.822 97.168c1.66 5.532 6.05 9.606 11.436 10.632l123.27 26.344c3.232.692 3.462.132 6.596-1.296l55.694-25.38c1.778-.888 3.176-2.606 3.75-4.616l18.888-71.328a1.001 1.001 0 0 0-1.292-1.202h.002ZM274.422 274.5l-12.35 5.628 1.648-9.628 12.834-5.688c-2.246 10.01-2.148 9.476-2.132 9.688Zm-29.03 13.228 1.444-9.748 14.688-6.508-1.652 9.658-14.48 6.598Zm26.904-79.19-2.108 12.312-15.82 6.292 1.942-13.114 15.986-5.49Zm-2.504 14.63-2.308 13.478-15.462 6.328 2.004-13.532 15.766-6.274Zm-2.706 15.802-2.482 14.504-15.084 6.388 2.162-14.588 15.406-6.304h-.002Zm-19.724 21.806-14.76 6.25 1.61-14.604 15.316-6.268-2.166 14.622Zm-.344 2.318-2 13.502-14.164 6.276 1.496-13.568 14.668-6.21Zm2.158-.914 15.026-6.364-2.274 13.29-14.746 6.534 1.994-13.458v-.002Zm14.948 5.952 2.266-13.242 13.692-5.798-2.984 13.292-12.974 5.75v-.002Zm2.666-15.584 2.476-14.47 14.63-5.988-3.278 14.6-13.83 5.858h.002Zm2.874-16.794 2.302-13.452 15.514-6.174-3.048 13.584-14.768 6.042Zm2.7-15.77 2.084-12.186 16.148-5.546-2.584 11.508-15.65 6.224h.002Zm-35.54.74 17.354-5.962-1.96 13.236-16.014 6.37 1.184-10.742c.154-1.074-.06-2.078-.564-2.902Zm15.052 9.576-2.008 13.558-15.406 6.306 1.492-13.526 15.922-6.338Zm-39.84-16.464 21.602 6.882c1.252.358 1.948 1.388 1.766 2.658l-1.192 10.804-22.76-6.908.584-13.436Zm-.674 15.5 22.626 6.868-1.542 13.98-21.72-6.192.636-14.656Zm20.862 22.862-1.686 15.292-20.574-5.966.672-15.48 21.588 6.154Zm-22.162-38.992-.584 13.466-23.582-7.158-.826-14.272 24.992 7.964Zm-.674 15.53-.638 14.692-21.832-6.224-.9-15.56 23.37 7.092Zm-23.47 25.824-21.804-6.306-1.488-15.896 22.378 6.378.916 15.822-.002.002Zm-53.976-30.948 2.302 16.024-27.462-7.886-3.404-16.282 28.564 8.144Zm-29.026-10.354-3.758-17.98 30.026 9.114 2.45 17.052-28.718-8.186Zm31.134 10.954 26.512 7.558 1.488 15.886-25.698-7.414-2.302-16.03Zm.506 17.596 2.446 17.024-25.99-6.854-3.768-18.02 27.312 7.85Zm2.108.608 25.588 7.384 1.506 16.088-24.658-6.502-2.436-16.97Zm48.218-5.792-22.456-6.402-1.518-16.202 23.072 7.002.902 15.602Zm-1.852-32.032.828 14.304-23.15-7.026-1.39-14.832 23.712 7.554Zm-22.668 25.042-26.624-7.588-2.444-17.012 27.546 8.36 1.522 16.24Zm-3.116-33.256 1.392 14.864-27.658-8.394-2.234-15.55 28.5 9.08Zm-30.616-9.754 2.238 15.584-30.178-9.16-3.432-16.42 31.374 9.998-.002-.002Zm-65.916-21.002 32.352 10.308 3.44 16.456-30.412-9.23-5.38-17.534Zm6.088 19.838 30.17 9.158 3.768 18.024-28.05-7.996-5.888-19.186Zm6.586 21.462 27.814 7.928 3.404 16.28c-13.854-3.958-23.736-6.744-26.028-7.3l-5.19-16.908Zm5.868 19.12c3.368.896 12.84 3.582 25.81 7.294l3.778 18.072-23.724-6.256-5.866-19.112.002.002Zm20.636 44.178c-4.672-.89-8.472-4.432-9.918-9.252l-4.164-13.564 23.492 6.194 4.078 19.504-13.488-2.882Zm15.626 3.34-4.054-19.392 25.84 6.814 2.552 17.778-24.338-5.2Zm26.422 5.646-2.538-17.67 24.546 6.472 1.52 16.226-23.528-5.028Zm22.37-28.81 21.726 6.282.886 15.32-21.11-5.568-1.502-16.034Zm3.21 34.276-1.51-16.122 21.032 5.546.864 14.932-20.386-4.356Zm39.068 8.348-16.654-3.558-.858-14.828 18.102 4.774-.592 13.614.002-.002Zm.68-15.658-18.312-4.83-.882-15.266 19.82 5.74-.626 14.356Zm-19.318-22.214-.916-15.832 21.62 6.164-.672 15.47-20.032-5.802Zm39.744 38.082c-.238 2.632-2.078 3.316-4.616 3.316l-14.508-3.1.586-13.516 19.438 5.126-.9 8.174Zm-18.448-15.346.622-14.304 20.442 5.926-1.494 13.538-19.57-5.162v.002Zm20.038 17.182c.43-1.058.344-1.124 1.31-9.892l14.072-6.236-1.448 9.778-13.934 6.35Zm57.594-28.364c-.412 1.438-1.452 2.724-2.684 3.342l-7.542 3.438 2.172-9.676 9.994-4.428-1.94 7.326v-.002Zm2.596-9.804-10.104 4.478 2.972-13.244 10.648-4.508-3.516 13.274Zm4.164-15.722-10.756 4.556 3.27-14.566 11.37-4.654-3.882 14.664h-.002Zm4.524-17.086-11.476 4.698 3.042-13.556 12.05-4.796-3.616 13.654Zm4.252-16.06-12.156 4.834 2.554-11.376 12.468-4.284-2.868 10.826h.002Z"/>
    <g fill="#0a0430">
        <path d="M109.652 180.994a1 1 0 0 1-.994-1.124c.252-2.02.748-4.242.994-6.214a1 1 0 1 1 1.984.248c-.252 2.02-.748 4.242-.994 6.214a.999.999 0 0 1-.99.876ZM255.596 195.22a1.001 1.001 0 0 1-.998-1.08c.358-4.438.57-8.396.652-12.1.03-1.348 2.028-1.264 2 .044-.082 3.742-.296 7.74-.658 12.218a.998.998 0 0 1-.996.918Zm.396-24.33a1 1 0 0 1-.996-.93c-.29-4.166-.812-8.186-1.552-11.946a1 1 0 1 1 1.962-.386c.754 3.842 1.288 7.942 1.584 12.192a1 1 0 0 1-.998 1.07Zm-142.614-8.038a1 1 0 0 1-.968-1.254c1.042-3.956 2.44-7.944 3.798-11.664a.999.999 0 1 1 1.878.686c-1.34 3.674-2.722 7.608-3.742 11.486a1.002 1.002 0 0 1-.966.746Zm137.042-15.458a.952.952 0 0 1-.812-.448c-2.184-2.94-5.036-4.868-9.342-6.398a1.001 1.001 0 0 1 .67-1.886c3.856 1.37 8.112 3.724 10.33 7.162.42.666-.026 1.568-.848 1.568l.002.002Zm-127.998-7.028c-.814 0-1.3-.942-.794-1.606a25.181 25.181 0 0 1 3.522-3.76 25.993 25.993 0 0 1 6.808-3.364 1 1 0 0 1 .618 1.902 24.025 24.025 0 0 0-6.204 3.042c-3.09 2.7-2.946 3.786-3.948 3.786h-.002Zm106.456-3.04c-.474 0-3.768-1.04-12.078-2.672a.998.998 0 0 1-.788-1.174.996.996 0 0 1 1.174-.788 237.87 237.87 0 0 1 11.934 2.664c1.138.284.93 1.97-.242 1.97Zm-23.888-4.694c-.432 0-4.15-.688-12.186-1.426a.999.999 0 0 1-.904-1.088.998.998 0 0 1 1.086-.904c4.044.372 8.128.852 12.144 1.428 1.22.174 1.092 1.99-.14 1.99Zm-60.722-.936c-1.252 0-1.354-1.854-.11-1.994 4.032-.45 8.13-.802 12.182-1.05a1 1 0 0 1 .12 1.996c-8.648.526-11.586 1.046-12.194 1.046l.002.002Zm36.478-1.29c-.55-.004-5.246-.256-12.166-.186-.542.018-1.004-.438-1.01-.99a1 1 0 0 1 .99-1.01c4.062-.042 8.17.022 12.226.186 1.296.052 1.256 2.01-.04 2ZM253.55 213.8a1 1 0 0 1-.994-1.124c.124-.992.622-5.218.746-6.214a1 1 0 1 1 1.984.248c-.124.992-.622 5.216-.746 6.214a.999.999 0 0 1-.99.876Z"/>
    </g>
    <path fill="#0a0430" d="M218.096 19.884c-1.886-2.83-5.762-2.698-9.106-1.53a6.142 6.142 0 0 0-.518-1.74c2.78-.842 5.004-2.772 6.224-5.454a1 1 0 0 0-1.822-.828c-1.068 2.35-3.104 3.98-5.638 4.54a7.07 7.07 0 0 0-.956-.794c-1.624-.812-3.624-.922-5.458-.312-8.27 2.482-8.664 13.116-.214 13.116 4.368 0 7.672-3.21 8.318-6.358 2.656-1.088 6.132-1.592 7.506.47.724 1.082 2.404 0 1.664-1.11Z"/>
    <path fill="#fff" d="M207.216 20.162c-3.946 2.488-6.904 6.446-7.894 10.898-.89 3.116 2.394 5.77 4.438 3.73 4.322-3.362 5.134-9.526 3.456-14.628Z"/>
    <path fill="#0a0430" d="M198.362 30.784c1.016-4.578 4.054-8.778 8.322-11.468a1.001 1.001 0 0 1 1.484.534c1.666 5.066 1.138 11.894-3.792 15.73-2.588 2.612-7.212-.604-6.012-4.794l-.002-.002Zm8.268-9.01c-3.228 2.398-5.508 5.798-6.33 9.5-.652 2.29 1.524 4.038 2.754 2.806 3.848-3.002 4.546-8.104 3.576-12.306Z"/>
    <path fill="#fff" d="M195.642 16.214c-2.662-1.598-3.926-6.214 0-6.214 2.486 0 5.182.79 7.208 2.486 1.22 1.022 4.97 4.224 3.976 5.716-1.244 1.866-8.99-.672-11.184-1.988Z"/>
    <path fill="#0a0430" d="M204.936 19.858c-1.914 0-6.828-.998-9.81-2.786-2.104-1.262-3.704-4.348-2.616-6.524.708-1.076 1.712-1.546 3.13-1.546 3.014 0 5.882.996 7.866 2.732 6.654 5.318 4.822 8.124 1.43 8.124ZM195.642 11c-.862 0-1.184.22-1.404.548-.08.178-.08.512-.08.936.186 1.03 1.014 2.278 2 2.87 3.294 1.976 9.392 2.956 9.838 2.292.126-.45-1.138-2.276-3.77-4.38-1.66-1.45-4.046-2.266-6.584-2.266ZM196.388 188.2a1 1 0 0 1-.942-.664c-5.334-14.94 6.06-30.602 19.678-36.544 27.588-12.038 61.176 3.024 85.832-13.582 1.486-.852 2.89-2.348 3.916-4.14 1.162-3.134-.58-7.21-4.12-9.334-3.412-1.818-7.18-2.838-11.474-3.09-18.172-2.42-36.322-7.546-54.022-15.242-11.078-5.002-16.794-11.152-17.004-18.284-.26-12.006 14.646-17.96 26.642-17.432 18.472.5 36.564 7.254 54.598 11.206 22.714 4.978 40.196 3.474 53.444-4.6 5.838-3.336 9.554-8.246 9.962-13.146.526-10.012-12.558-15.476-18.208-17.36-26.624-8.21-54.806-9.322-81.474-3.206-22.978 5.19-46.928 15.722-70.31 9.686C170.378 46.59 175.7 27.29 185.66 26.89c1.336-.042 1.392 1.946.08 1.998-7.702.308-12.536 16.372 7.668 21.644 22.76 5.874 46.494-4.536 69.364-9.7 27.006-6.196 55.546-5.072 82.53 3.25 6.106 2.034 20.192 7.984 19.592 19.4-.464 5.588-4.554 11.084-10.94 14.734-13.686 8.34-31.646 9.924-54.89 4.83-18.014-3.948-36.054-10.67-54.24-11.16-10.66-.482-24.806 4.656-24.572 15.382.186 6.296 5.506 11.852 15.814 16.508 17.518 7.616 35.488 12.692 53.402 15.08 4.514.262 8.552 1.358 12.268 3.34 4.47 2.68 6.528 7.684 4.938 11.92-1.264 2.24-2.94 4.006-4.666 4.99-25.244 17.008-58.966 1.884-86.088 13.718-12.794 5.584-23.542 20.184-18.594 34.038a1 1 0 0 1-.942 1.336l.004.002Z"/>
</svg>
