<svg xmlns="http://www.w3.org/2000/svg" fill="none" height="400" width="400">
    <path fill="#000" fill-rule="evenodd" d="M216.092 359.422v.002l.002.348.002.006c.118 5.174-4.032 9.772-9.322 10.014-.066.026-21.208 4.618-81.232 6.568-18.538.6-62.756 1.622-80.83 0-6.718.27-22.036-2.79-22.036-13.958C16.61 315.08 8.268 72.712 9.214 46.204c.402-11.328 10.288-15.732 18.628-16.072 1.246-.051 2.616-.23 4.742-.51 7.56-.99 24.674-3.233 79.762-5.4 66.078-2.6 79.926-.944 80.482-.872 5.054-.23 9.668 4.024 9.91 9.316.036.193 4.14 26.272 7.964 122.074-5.19 1.304-10.298 3.048-15.278 5.177-1.843-43.683-4.708-85.712-8.768-115.283-.218-4.626-4.128-8.022-8.344-7.83-36.296-4.764-96.134.24-132.368 5.464-4.478.21-8.03 4.026-7.834 8.346a1339.523 1339.523 0 0 0 .804 130.058c59.501-.527 83.91-1.282 132.565-6.913a128.095 128.095 0 0 0-4.205 3.257c-43.624 4.99-85.325 7.51-128.185 6.783.107 1.868.218 3.734.333 5.599 4.762 78.548 9.8 130.808 9.85 131.326.008 4.236 3.442 7.746 8.456 7.574 23.634 5.438 112.048.934 132.124-5.432l.208-.038c4.38-.198 7.952-3.982 7.754-8.336.378-21.842.327-50.296-.219-81.122a20.209 20.209 0 0 0 11.987 7.742c1.25.374 2.64.534 4.012.4 2.332 79.842 2.482 114.134 2.498 117.91ZM10.854 46.26c-.944 26.486 7.39 268.652 13.458 316.032.008 6.068 4.694 10.046 13.596 11.66-2.058-1.814-3.19-4.302-3.19-6.956-.05-.672-5.3-74.3-9.414-180.142C21.366 85.476 21.363 43.871 21.362 40.19v-.268a9.816 9.816 0 0 1 3.682-7.866c-6.872 1.094-13.87 5.254-14.19 14.204Zm114.004 289.106c-9.112 0-16.524 7.414-16.524 16.524 0 9.11 7.414 16.524 16.524 16.524 9.11 0 16.524-7.412 16.524-16.524 0-9.112-7.414-16.524-16.524-16.524Zm0 30.648c-7.788 0-14.124-6.336-14.124-14.124s6.336-14.124 14.124-14.124 14.124 6.336 14.124 14.124-6.336 14.124-14.124 14.124Z" clip-rule="evenodd"/>
    <g fill="#000">
        <path fill-rule="evenodd" d="M73.075 147.596c-.436.038-.879.075-1.327.112-8.034.666-16.392 1.102-23.02-3.24-4.276-2.848-2.506-6.586 2.08-8.9 3.104-1.566 6.088-3.044 8.965-4.47 20.689-10.247 35.857-17.761 50.669-35.532 3.522-3.73 5.204-8.642 4.786-13.88-.446-2.16.146-4.324 1.416-5.578 3.042-3.002 10.638-4.142 14.342-4.142 4.458-.342 13.916.804 17.688 3.346 1.538 1.038 2.306 2.702 1.078 5.354a19.943 19.943 0 0 0-.652 4.27 17.808 17.808 0 0 1-2.146-.746c.092-1.334.317-2.722.708-4.188.304-.804.752-2.316.042-2.802-.865 1.796-2.492 3.196-4.81 4.16-.266-.342-.422-.64-.482-.864-1.031.034-1.72.727-2.098 1.69-.883.212-1.834.379-2.85.498-4.982.554-17.288.254-19.272-4.922-.768.412-1.082 2.22-.8 3.62.486 5.992-1.406 11.498-5.312 15.634a115.104 115.104 0 0 1-3.05 3.518c3.252.586 6.33 1.78 8.382 3.832 1.02 1.022-.512 2.554-1.532 1.534-1.149-1.723-5.06-2.857-7.547-3.578-.267-.077-.518-.15-.747-.218a94.327 94.327 0 0 1-8.848 8.302c2.638 1.022 4.994 2.49 6.508 4.488.87 1.148-.858 2.458-1.728 1.308-.85-1.752-4.192-3.324-6.554-4.382-4.214 3.272-7.402 5.462-10.044 7.148 1.808 1.134 2.544 1.834 4.032 4.046.804 1.194-1.442 2.166-2 .836-.862-1.694-2.412-2.794-3.808-3.772-5.737 3.52-10.38 5.862-26.655 14.069l-6.695 3.377c-1.784.902-3.67 2.402-3.236 3.774a5.573 5.573 0 0 0 1.378 1.346c6.1 3.999 14.038 3.497 21.339 2.908.022.073.047.147.077.22a7.791 7.791 0 0 0 1.723 1.824Zm64.139-67.084c3.198-.376 7.206-1.438 8.548-4.328h.002c-5.792-3.634-20.384-3.602-25.83.294 2.532 4.862 12.014 4.62 17.28 4.034Z" clip-rule="evenodd"/>
        <path d="M178.154 109.834c-2.582-10.762-6.972-16.222-4.628-25.198 1.228-2.652.46-4.316-1.078-5.354-3.772-2.542-13.23-3.688-17.688-3.346-3.704 0-11.3 1.14-14.342 4.142-1.27 1.254-1.862 3.418-1.416 5.578.418 5.238-1.264 10.15-4.786 13.88-16.872 20.242-34.206 27.176-59.634 40.002-4.586 2.314-6.356 6.052-2.08 8.9 6.628 4.342 14.986 3.906 23.02 3.24 31.15-2.584 32.52-5.332 63.418-20.15.436 1.406.634 2.662.634 3.956 0 .604.49 1.094 1.094 1.094 5.712 0 11.274-.774 16.082-2.236.354-.108.628-.384.732-.738 2.244-7.642 2.48-15.856.67-23.77h.002Zm-8.618-29.68c-1.342 2.89-5.35 3.952-8.548 4.328-5.266.586-14.748.828-17.28-4.034 5.446-3.896 20.038-3.928 25.83-.294h-.002Zm-31.928 59.178c-14.938 7.534-23.614 8.652-42.06 10.15-7.436.604-15.598 1.222-21.838-2.868a5.573 5.573 0 0 1-1.378-1.346c-.434-1.372 1.452-2.872 3.236-3.774 21.824-11.016 26.894-13.484 33.35-17.446 1.396.978 2.946 2.078 3.808 3.772.558 1.33 2.804.358 2-.836-1.488-2.212-2.224-2.912-4.032-4.046 2.642-1.686 5.83-3.876 10.044-7.148 2.362 1.058 5.704 2.63 6.554 4.382.87 1.15 2.598-.16 1.728-1.308-1.514-1.998-3.87-3.466-6.508-4.488a94.327 94.327 0 0 0 8.848-8.302c2.36.702 7.022 1.888 8.294 3.796 1.02 1.02 2.552-.512 1.532-1.534-2.052-2.052-5.13-3.246-8.382-3.832a115.104 115.104 0 0 0 3.05-3.518c3.906-4.136 5.798-9.642 5.312-15.634-.282-1.4.032-3.208.8-3.62 1.984 5.176 14.29 5.476 19.272 4.922 5.29-.622 8.808-2.512 10.24-5.484.71.486.262 1.998-.042 2.802-3.29 12.34 5.16 19.176 5.706 34.938-1.774 2.93-4.75 5.222-7.932 6.284-8.406 3.46-.68-1.456-31.6 14.138h-.002Zm37.938-6.916c-4.174 1.206-8.92 1.88-13.824 1.964-.104-1.394-.134-2.35-.688-3.908 5.168-1.496 12.748-4.486 16.116-8.726a44.345 44.345 0 0 1-1.604 10.67Z"/>
    </g>
    <g fill="#000">
        <path d="M159.184 225.914c-.784-2.354-5.01-3.222-3.75-1.64.12.152.232.296.334.434-9.174 5.97-9.746 6.286-13.518 9.016-.272-.154-23.12-3.418-41.91.824-.306.102-.646.578-.656 1.094-.11 5.476.338 10.976 1.97 16.2.826 2.644 1.752 5.254 3.066 7.664 1.032 2.584 3.102 3.714 5.692 3.284 11.244.388 20.3-.178 23.644-.656 1.314 0 2.408-.22 3.502-.658.658-.656 1.094-1.75 1.314-2.626.438-1.532.876-2.846 1.314-4.378 1.734-6.504 2.61-13.006 2.626-19.724 2.482-1.38 3.336-1.98 13.56-8.37-.352 1 .526 2.324 2.16 1.51.656-.438.876-1.314.656-1.97l-.004-.004Zm-17.914 9.19a70.52 70.52 0 0 1-.564 7.96c-6.442-.342-31.134.362-38.286.988a62.65 62.65 0 0 1-.55-8.054 115.399 115.399 0 0 1 39.398-.894h.002Zm-4.592 24.18c-.438.876-1.094.658-2.188.876-7.97 1.138-24.864 1.032-26.052.438-.876-.22-1.094-1.094-1.532-1.97a52.824 52.824 0 0 1-1.766-3.95c5.428-.13 27.872-.668 33.364-.84-1.034 3.656-1.526 4.548-1.826 5.446Zm2.192-6.772c-4.668.152-28.876.766-34.172 1.044-1.064-2.766-1.672-5.51-2.124-8.44 14.854-.816 23.858-.254 37.95-.704-.672 4.704-1.186 6.378-1.654 8.098v.002ZM112.238 264.236a1.83 1.83 0 1 0 .002 3.662 1.83 1.83 0 0 0-.002-3.662ZM133.324 263.37a1.83 1.83 0 1 0 .002 3.662 1.83 1.83 0 0 0-.002-3.662ZM180.902 289.498c0-.22-.218-.22-.438-.438-1.314-.218-2.626 0-3.94.438-1.492.224-2.924.434-4.302.644-.098-1.368-.252-3.426-.514-6.992 0-.876-1.752-.876-1.532 0 .118 1.644.22 4.364.352 7.254-2.506.394-4.812.798-6.918 1.284-.656.438-.656 1.752 0 1.534 2.148-.166 4.49-.478 7.012-.86.114 2.27.25 4.522.432 6.332 0 2.974 1.894 3.09 1.73.37-.128-2.678-.352-5.818-.424-6.968 1.274-.2 2.59-.412 3.948-.626 2.38-.238 3.332-.176 4.378-.876.438-.218.438-.658.218-1.094l-.002-.002Z"/>
        <path fill-rule="evenodd" d="M175.252 204.898a26.283 26.283 0 0 0-6.206-5.542c-.671.443-1.337.894-1.998 1.352a24.267 24.267 0 0 1 7.2 6.258c.328-.694.662-1.382 1.004-2.068Zm4.677 19.95c.116 7.698-2.222 15.368-6.031 21.96v-.002c-6.225 10.948-16.202 20.518-25.691 29.62-10.283 9.866-19.993 19.18-23.735 29.102-5.81-10.058-15.876-17.638-26.538-25.664-8.908-6.708-18.232-13.728-25.836-22.768-7.662-9.196-12.71-20.556-11.384-32.838 1.298-12.02 10.744-21.256 22.768-22.33 14.132-1.264 26.024 7.142 34.526 17.742 1.282 1.598 2.708.532 3.368-.552 7.25-11.902 16.232-18.398 24.945-20.759.655-.843 1.321-1.679 2-2.507-12.517 2.27-23.12 11.648-28.845 22.976-18.902-27.252-50.464-22.996-58.762-2.452-4.378 11.166-1.75 24.082 4.16 34.152 6.645 11.006 16.833 19.056 26.83 26.954.545.43 1.088.858 1.63 1.288a406.253 406.253 0 0 0 5.43 4.134c9.577 7.208 19.676 14.808 25 25.64.488.976 1.97.116 1.97-.218 3.363-10.926 13.309-20.368 23.976-30.496 9.54-9.056 19.656-18.662 26.158-30.364 4.678-8.144 6.56-16.386 6.215-23.84-.714.414-1.431.822-2.154 1.222Z" clip-rule="evenodd"/>
    </g>
    <g fill="#000">
        <path fill-rule="evenodd" d="M299.482 187.32a71.49 71.49 0 0 1-1.68-.948c-7.196 4.257-14.444 8.698-15.54 9.424-2.378 1.578-4.428 3.916-5.692 6.568-1.138 2.388-2.408 4.816-4.16 6.788-2.408 2.408-4.998 4.442-7.882 6.13-5.836 3.414-12.26 6.13-18.828 8.32-1.492.526-2.944 1.064-4.39 1.598-2.162.802-4.312 1.596-6.556 2.342l-1.01.334c-2.482.818-4.83 1.592-7.09 2.726 1.192-1.478 1.46-1.792 2.014-2.442.79-.924 2.164-2.53 7.618-9.156.754-.566 1.184-1.458 1.568-2.252.062-.128.122-.254.182-.374 0-1.094-.438-2.19-1.532-2.846-.09-.072-.18-.142-.27-.21.794-.66 1.364-1.576 1.364-2.636 0-1.75-.656-3.284-1.97-4.596a13.97 13.97 0 0 0-1.928-1.902c2.088-1.642 3.99-3.674 3.488-6.286a65.95 65.95 0 0 1-1.854-.059c.294 1.32-.23 2.729-1.46 3.431-.298.254-.622.536-.982.848l-.002.002c-2.288 1.982-6.016 5.214-13.246 10.752-1.604 1.228-3.004 2.338-4.25 3.324-7.692 6.094-9.45 7.488-16.548 3.244-.784-.468-1.695-.982-2.695-1.544a218 218 0 0 1-2.885-1.644c-.452.336-.907.668-1.363.998a73.96 73.96 0 0 0 5.199 3.062c.292.164.585.332.88.5h.001c3.249 1.858 6.707 3.834 10.285 2.346 1.99-.828 3.94-2.188 5.474-3.502 7.442-5.656 10.972-8.5 13.372-10.434 1.916-1.542 3.112-2.508 5.004-3.858 1.394.972 2.628 2.66 3.298 4.222.548 1.824-1.334 3.038-2.864 4.026-.308.2-.602.388-.858.572l-17.952 13.354c-.43.322-.868.67-1.312 1.022-2.266 1.798-4.736 3.758-7.664 3.574-3.502-.218-7.224-.876-10.508-1.75l-.002-.002c-3.284-.438-6.348-1.97-8.756-3.94-1.003-1.002-1.785-2.16-2.4-3.418-.514.306-1.03.606-1.547.904 1.961 3.774 5.251 6.462 10.729 7.556 1.098.366 2.214.68 3.342.954 4.016 6.65 16.404 12.806 22.272 8.242 2.708-2.438 4.222-4.37 5.68-6.234.394-.504.784-1.002 1.194-1.504 1.55-.538 3.24-1.26 4.928-1.984 1.816-.776 3.63-1.552 5.274-2.1.854-.286 1.734-.576 2.634-.874 11.056-3.656 25.134-8.312 33.706-15.326 3.508-2.552 4.634-4.906 5.914-7.59.886-1.852 1.846-3.862 3.718-6.202l.022-.019c1.308-1.088 2.612-2.175 4.138-2.827 4.632-2.947 9.696-5.99 14.378-8.705Zm-123.235 15.634c.304-.58.613-1.154.927-1.728-.52-1.69-.54-3.527-.012-5.678.793-.451 3.52-1.965 5.252-2.89.42-.618.845-1.232 1.278-1.84-.267-.288-.676-.455-1.046-.27-13.354 6.786-25.396 15.982-35.466 26.928-1.087 1.186-2.192 2.628-3.288 4.058-3.011 3.932-5.96 7.78-8.316 6.012-1.752-1.314-1.314-4.598-.876-6.348.876-3.942 2.706-7.392 4.816-10.728.395-.624.784-1.244 1.17-1.858v-.002c1.619-2.574 3.192-5.08 4.96-7.554 20.362-27.314 54.266-48.596 89.102-47.726 3.54.088 5.154.296 6.64.487 1.584.204 3.022.389 6.496.389a14.961 14.961 0 0 0 5.692-2.626s7.062-4.743 12.776-8.598c-.12-.55-.234-1.1-.34-1.654a506.52 506.52 0 0 0-11.558 7.626 15.744 15.744 0 0 1-5.91 3.284c-3.38.307-5.126.067-7.102-.206-1.562-.215-3.266-.45-6.034-.45-31.312-1.746-72.552 18.272-97.42 57.576-2.11 3.336-4.028 6.982-5.036 10.946-.72 2.83-1.094 7.662 2.188 9.194 3.253 1.518 5.647-1.476 7.395-3.66l.049-.062c8.98-11.632 20.244-21.554 32.904-29.052-.438 1.763-.286 4.042.759 6.43Zm36.411-4.702c1.97-1.324 4.09-2.452 6.3-3.264-.86-.266-1.718-.55-2.572-.854-.16.072-.324.147-.486.223a125.242 125.242 0 0 1-3.242 3.895Zm5.46 40.454c-2.896 3.578-13.32 3.452-20.224-5.778 2 .39 4.03.638 6.058.888l.592.072c1.536.19 3.066 0 4.378-.658l.03-.018c1.74-1.088 3.482-2.178 5.224-3.484 0 0 17.15-12.57 20.316-15.07.16.112.32.244.48.404.11.11.274.22.44.33.162.108.326.218.436.326.218.438.218.876 0 1.314-.656 1.094-1.532 2.19-2.626 3.066l-15.106 18.608h.002Z" clip-rule="evenodd"/>
        <path d="M366.11 60.504c-10.424-11.914-17.122-10.188-24.52-3.284-27.55 24.492-28.488 23.5-44.66 38.968-5.538 5.26-9.11 9.236-11.022 13.752-5.796 4.666-17.28 14.518-19.412 16.262-6.064 4.768-2.04 32.354 18.392 52.082 5.184 5.184 9.614 7.806 15.982 11.166 1.994 1.052 4.16 1.97 6.568 2.408 3.066 0 5.912-.656 8.538-1.97 6.444-2.684 11.082-4.958 14.678-6.958a70.91 70.91 0 0 0 1.522.608c2.846.876 6.13.876 8.976-.438.21-.084 30.912-12.982 36.342-16.418 3.336-2.11 5.91-5.036 7.662-8.538 10.154-25.388 5.344-68.372-19.046-97.64ZM311.818 189.45c-2.626.876-5.444.598-8.1-.656-6.4-3.022-12.02-6.832-15.542-9.852-12.698-10.728-20.58-26.052-22.33-42.69-.658-2.846 0-5.692 1.97-8.1 1.528-1.528 10.762-8.586 16.772-13.722-.73 4.094-.426 8.926.742 15.472 2.408 12.478 8.318 24.082 16.856 33.276 7.964 8.382 18.156 15.092 26.33 18.82a131.067 131.067 0 0 1-16.696 7.452h-.002Z"/>
        <path d="M275.258 132.31c-1.474.368-2.966 2.266-3.25 4.356-.476 3.52 2.542 5.738 5.658 4.182 1.752-.658 2.846-2.408 3.066-4.16 0-3.196-3.476-4.878-5.474-4.378ZM274.382 186.166c-3.284 1.97-6.786 3.722-10.29 5.474-15.014 6.306-31.312 7.198-47.288 1.314-.438 0-.656 0-.876.218-11.4 14.386-24.978 25.294-39.188 32.4-1.752.876-5.254 2.626-6.568 0-.656-1.97-.438-4.16.438-5.912 6.604-22.004 23.054-44.362 47.726-59.546.378-.378-.03-1.282-.876-.438-23.512 11.756-42.02 36.366-49.038 59.766-.656 1.97-.876 3.942-.656 5.912.22 1.97 1.752 3.284 3.722 3.722 2.408 0 4.598-.656 6.568-1.97 14.95-7.8 28.184-18.816 38.642-31.988 21.372 7.424 44.78 3.072 58.778-7.636.876-.656-.22-1.75-1.094-1.314v-.002Z"/>
    </g>
    <g fill="#000">
        <path d="M239.654 39.204c-2.452 2.488-3.29 3.878-9.084 12.154a86.705 86.705 0 0 0-7.712 13.416c-.562 1.218.446 1.64 1.038.734 9.782-15.02 11.158-17.15 12.632-19.048a66.336 66.336 0 0 0 4.224-6.092c.692-1.134-.504-1.764-1.098-1.162v-.002ZM268.086 67.698l-18.412 12.276c-1.406 1.126.066 3.328 1.458 2.228l18.366-12.246c1.452-.87-.014-3.386-1.414-2.258h.002ZM256.752 313.028c-1.05-2.084-6.62-8.068-8.208-9.734-1.772-1.856-5.808-6.984-8.886-9.4-.992-.778-1.626-.152-1.112.772.7 1.258 2.22 2.996 3.98 5.01 4.132 4.724 11.326 13.682 12.518 14.484 1.184.796 2.432.304 1.708-1.132ZM287.336 256.142c-14.622-1.822-12.672-1.758-31.154-5.616-1.346-.282-1.574 1.112-.378 1.492 10.092 3.194 20.678 5.372 31.436 6.466 1.49.32 1.61-2.042.096-2.342Z"/>
    </g>
</svg>
