<svg xmlns="http://www.w3.org/2000/svg" viewBox="-0.5 -0.5 20 20" id="Tags--Streamline-Ultimate.svg" height="20" width="20"><desc>Tags Streamline Icon: https://streamlinehq.com</desc><path d="M1.0925 9.009166666666669 10.418333333333335 18.208333333333336a1.5833333333333335 1.5833333333333335 0 0 0 1.1004166666666666 0.4433333333333334A1.5833333333333335 1.5833333333333335 0 0 0 12.666666666666668 18.208333333333336l5.589166666666667 -5.597083333333334A1.5833333333333335 1.5833333333333335 0 0 0 18.208333333333336 10.291666666666668L8.945833333333335 1.1875l-0.03958333333333334 -0.0475a2.9925 2.9925 0 0 0 -1.8920833333333336 -0.7916666666666667h-5.145833333333334a1.5833333333333335 1.5833333333333335 0 0 0 -1.5833333333333335 1.5833333333333335V7.125000000000001a2.9925 2.9925 0 0 0 0.8075000000000001 1.8841666666666668Zm2.7550000000000003 -3.8950000000000005A1.1875 1.1875 0 1 1 5.035000000000001 6.333333333333334a1.1875 1.1875 0 0 1 -1.1875 -1.2191666666666667Z" fill="#000000" stroke-width="1"></path></svg>