<?xml version="1.0" encoding="utf-8" ?>
<svg xmlns="http://www.w3.org/2000/svg" xmlns:xlink="http://www.w3.org/1999/xlink" width="1024" height="1024">
	<path fill="#242423" d="M942.57 219.122C944.237 218.797 945.662 218.704 947.249 219.439C948.706 220.114 949.921 221.214 950.31 222.834C951.38 227.29 943.089 236.631 940.53 240.464C877.561 336.366 816.431 433.463 757.175 531.702L694.284 634.747C688.614 643.893 683.311 653.311 677.466 662.341C675.98 664.637 674.669 667.004 671.769 667.514C669.556 667.903 668.213 666.909 666.436 665.717C661.725 662.557 657.356 658.617 652.962 655.033C645.108 648.651 637.289 642.227 629.503 635.762C611.737 620.963 593.874 606.28 575.916 591.715C567.26 584.738 558.684 577.563 549.768 570.924C529.017 585.403 508.751 600.799 488.315 615.733C482.205 620.198 471.582 629.853 465.085 632.009C463.284 632.607 461.313 632.472 459.655 631.575C457.202 627.889 453.952 574.749 453.462 566.374C452.099 552.562 450.909 538.732 449.892 524.89C449.257 516.329 448.919 507.64 447.673 499.145C433.26 491.289 419.646 480.628 406.131 471.266C381.133 454.019 356.032 436.921 330.83 419.973L307.781 404.283C303.244 401.192 298.661 397.764 293.861 395.101C291.468 393.773 288.617 393.83 286.212 392.596C284.771 391.858 283.686 390.572 283.202 389.027C282.728 387.499 282.88 386.067 283.667 384.661C284.493 383.183 285.889 382.525 287.417 382.004C294.904 379.451 303.099 377.977 310.798 376.048C327.918 371.689 345.075 367.477 362.267 363.413L500.26 328.751L942.57 219.122ZM474.706 614.601L498.372 597.677C513.123 587.008 527.571 575.256 542.976 565.582L516.547 543.897C512.229 540.358 507.64 535.825 502.778 533.152C494.37 560.639 483.68 587.321 474.706 614.601Z"/>
	<path fill="#FEFEFC" d="M922.267 245.526C922.254 246.369 922.116 246.735 921.657 247.453C903.56 275.73 885.116 303.757 867.292 332.219L669.338 653.937C640.624 630.219 611.755 606.69 582.732 583.351L510.625 524.826C647.065 430.59 784.283 337.487 922.267 245.526Z"/>
	<path fill="#FEFEFC" d="M892.644 243.664C892.716 243.919 892.555 244.186 892.487 244.442C885.734 248.604 878.695 252.341 871.817 256.297C852.995 267.205 834.048 277.895 814.978 288.364L660.036 374.396L521.773 450.939L478.586 474.834C469.928 479.626 461.331 484.657 452.47 489.062C423.299 470.31 395.026 449.958 366.406 430.375L305.952 389.566C347.852 379.633 389.534 368.607 431.31 358.147L682.954 295.097L810.191 263.774C837.655 257.171 865.41 251.124 892.644 243.664Z"/>
	<path fill="#B6B6EA" d="M871.294 267.578L871.71 267.563C870.855 269.124 815.085 305.314 807.053 310.72L558.089 480.535C551.161 485.275 498.017 520.877 497.025 522.239C496.414 523.079 490.002 543.824 488.798 547.302L475.421 585.563C472.626 593.486 469.546 601.407 467.213 609.475L466.403 599.878C465.165 580.772 463.204 561.645 461.596 542.563C460.338 527.627 459.569 512.419 457.491 497.581C482.953 483.016 508.845 469.118 534.516 454.919C593.384 422.142 652.416 389.66 711.609 357.474C765.104 327.985 818.335 298.019 871.294 267.578Z"/>
	<path fill="#242423" d="M218.856 514.664C219.091 514.629 219.326 514.591 219.562 514.558C233.351 512.659 250.303 518.517 261.083 527.007C274.819 537.825 282.193 555.393 284.173 572.43C288.478 609.459 272.395 647.531 249.619 676.069C296 685.482 349.945 672.317 389.319 646.764C393.841 643.83 410.556 630.313 413.927 630.009C415.515 629.865 417.529 630.644 418.607 631.781C419.451 632.67 419.89 633.797 419.747 635.024C419.093 640.645 406.412 648.404 401.851 651.557C358.711 681.39 302.769 697.296 250.552 687.879C247.56 687.397 244.665 686.424 241.768 685.551C213.213 712.917 182.741 731.049 143.074 737.197C138.231 737.956 133.344 738.401 128.443 738.53C121.545 738.711 95.9754 738.035 91.3346 733.857C90.2594 732.889 89.6317 731.772 89.5499 730.321C89.4738 728.97 89.8429 727.608 90.8295 726.647C93.1483 724.386 110.53 727.412 114.262 727.646C143.141 729.459 175.87 719.892 200.173 704.535C210.539 697.984 219.607 690.163 228.776 682.072C218.261 677.634 208.23 672.472 198.803 666.003C178.453 652.039 162.687 632.283 158.178 607.601C154.23 585.985 156.369 563.063 169.251 544.734C181.016 527.993 198.946 518.109 218.856 514.664ZM226.273 668.481C230.03 670.127 233.849 671.626 237.722 672.975C259.661 646.71 276.76 610.954 273.489 576C272.092 561.083 266.428 545.887 254.604 536.147C245.106 528.323 233.191 524.939 221.023 526.131C220.903 526.143 220.784 526.165 220.665 526.181C204.542 528.103 189.854 536.384 179.866 549.186C168.513 563.892 165.88 582.959 168.307 601.009C171.19 622.445 182.636 640.08 199.721 653.062C208.036 659.38 216.829 664.133 226.273 668.481Z"/>
	<path fill="#242423" d="M471.504 673.968C472.364 673.892 473.404 673.763 474.255 673.891C475.637 674.098 476.255 674.634 477.135 675.655C477.667 677.15 477.733 678.124 477.366 679.68C476.141 684.877 472.362 690.193 469.566 694.722C450.773 725.164 422.676 751.301 392.453 770.203C333.003 808.079 260.953 820.817 192.12 805.62C191.008 805.325 189.776 805.058 188.75 804.528C187.478 803.87 186.74 802.614 186.301 801.301C185.845 799.936 185.623 798.42 186.509 797.158C186.951 796.529 187.61 796.098 188.293 795.774C191.513 794.244 214.584 798.995 220.404 799.539C237.726 801.156 254.283 801.399 271.602 799.723C339.262 793.124 401.873 761.019 446.719 709.928C452.884 702.827 458.144 694.848 463.154 686.903C465.761 682.771 468.044 678.069 471.187 674.332C471.291 674.209 471.398 674.089 471.504 673.968Z"/>
</svg>
