<svg xmlns="http://www.w3.org/2000/svg" fill="none" height="400" width="400"><path fill="currentColor" fill-rule="evenodd" d="M183.672 136.931a348.224 348.224 0 0 0-4.687-10.321c12.284-.427 56.309-1.519 71.177-1.536l.002.002c.67 0 1.278.17 1.796.47-1.786-.251-4.136 1.028-5.496 4.652l-3.17 6.428c-1.812.301-3.9.472-6.29.472l-53.332-.167z" clip-rule="evenodd"/><g fill="currentColor"><path d="M226.322 164.612c1.788-5.362 2.888-9.918-.48-15.604-9.432-16.167-29.826-19.323-41.967-11.066l.803 1.882c11.192-7.959 30.476-5.049 39.44 10.198 2.936 4.992 2.04 8.762.3 13.982-1.39 4.54-2.924 9.019-4.494 13.343l2.976-2.382a259.701 259.701 0 0 0 3.422-10.353z"/><path d="M220.464 156.286c-3.166-4.142-7.566-7.42-12.728-9.484a.797.797 0 0 0-.642.02c-.446.214-.16-.362-3.524 10.612-.644 1.29.228 2.352 1.094 2.518a34.112 34.112 0 0 1 11.638 8.426.8.8 0 0 0 1.346-.256l3.306-8.944c.46-.656.434-1.902-.492-2.892h.002zm-12.52-7.666c2.904 1.258 5.446 2.966 7.444 4.642-.506 1.728-2.4 8-2.84 9.488-3.938-2.986-7.116-4.054-7.61-4.448.172-.414.21-.59 3.008-9.682h-.002zm8.656 17.728a34.516 34.516 0 0 0-2.708-2.5c.502-1.708 2.38-7.928 2.818-9.404 1.46 1.388 2.5 2.672 2.94 3.542.004.202-.266.834-3.048 8.362h-.002z"/><path d="M212.17 155.54c-.586 0-1.148-.848-3.494-1.968-.956-.456-.266-1.898.69-1.444 1.552.742 3.2 1.912 3.27 1.96.632.45.312 1.452-.464 1.452h-.002zM210.482 158.218c-.438 0-1.088-.666-2.722-1.448-.954-.456-.264-1.902.69-1.444.904.432 1.842 1.01 2.47 1.42.666.434.356 1.47-.438 1.47v.002z"/></g><g fill="currentColor"><path d="M160.698 112.856c-1.936 2.26-3.37 5.172-4.102 7.782-2.534-1.27-3.25-1.426-5.722-1.776-1.058 0-1.262 1.418-.484 1.576 2.69 1.336 3.182 1.468 6.184 3.864.846.846 2.418.866 2.998-1.184 1.038-3.67 2.906-6.462 3.932-7.488 1.83-1.832-.998-4.596-2.804-2.774h-.002z"/><path d="M168.302 116.694c-1.508-4.148-4.6-8.624-9.056-9.84-.95-.32-1.558 1.212-.594 1.55 3.156 1.112 5.896 4.088 7.34 6.974 3.922 6.274.31 15.15-9.712 12.364-7.11-2.088-11.26-9.788-8.474-17.746.072-.216-.056-.622-.392-.762-.388-.16-.852.134-.95.334-3.632 7.466.592 16.71 8.242 19.53 10.064 3.916 16.61-4.222 13.596-12.406v.002zM163.924 97.5c-.23-.078-.47-.016-.596.12-8.496 5.292-9.498 6.246-11.412 6.072-4.67-.936-4.846-5.492-8.73-5.918-2.994 0-5.66 1.192-7.71 3.448-6.704 7.31-8.704 9.672-24.482 9.4-6.97-.124-15.72-.18-19.854 5.568-.388.392.074.906.606.906.458 0 2.658-3.002 8.146-4.342 12.572-3.074 23.284 4.492 35.624-10.33 1.704-1.702 4.23-3.726 6.606-3.69 1.722.026 2.6 1.066 3.416 1.99 1.86 2.098 4.178 4.708 7.402 4.14 2.596-.866 2.312-.838 11.108-5.948.626-.416.416-1.228-.124-1.412V97.5z"/><path d="M166.464 101.578c-.098-.236-.294-.256-.574-.256-1.53-.406-3.004 1.066-3.782 1.846-1.382 1.184-2.588 2.584-3.944 3.746-2.25 1.95-6.578 4.82-10.234 2.182-.952-.952-2.12-1.602-3.718-2.054-1.524-.218-2.994.438-3.816 1.676-6.432 7.42-6.02 14.298-15.25 17.654-3.568 1.296-8.468 2.244-12.086 4.958-6.794 4.465-11.335 11.15-13.141 18.213h1.435c1.779-7.008 6.23-13.32 13.412-17.709 2.088-1.32 4.424-2.1 6.684-2.852 10.494-3.502 10.568-5.626 16.668-14.784a38.153 38.153 0 0 1 3.324-4.496c1.086-1.268 2.906-1.414 4.292-.378.43.428 2.244 1.958 4.31 2.252 7.642 1.018 10.734-6.172 15.17-8.71.35-.2.7-.4 1.046-.638.208-.208.286-.452.204-.65z"/><path d="M145.73 113.344c-3.202.212-5.016 3.446-5.602 6.184-.196 2.144-.792 4.13-1.35 6.004-2.216 4.438-8.304 5.298-10.65 10.658-.662 1.542-1.01 3.148-1.002 4.586-.388 1.744-.222 3.478.478 5.036a.3.3 0 0 0 .258.454h.16a.292.292 0 0 0 .178-.068c.318-.302.308-3.186.106-4.732.224-2.01.666-3.654 1.346-5.016 2.822-5.288 10.366-5.464 11.46-13.682.644-3.194 1.222-7.676 4.632-8.038.788 0 .808-1.386-.02-1.386h.006zM174.31 135.478c-.844-.634-1.348-1.192-1.674-1.842-.394-.986-.768-1.916-.768-2.87-.194-2.316.394-4.522.198-6.89-.208-3.542-2.356-6.964-5.472-8.718a.303.303 0 0 0-.118-.038h-.12c-.386 0-.402.576-.016.598 1.716 1.356 3.016 3.06 3.756 4.904 1.628 5.962-.726 6.304.59 12.214.638 2.554 2.6 3.814 3.204 3.814.55 0 .824-.774.42-1.17v-.002z"/><path fill-rule="evenodd" d="M188.912 147.384c-5.518-14.16-12.388-28.67-20.43-43.146l-.052-.102c-.54-1.075-5.122-10.208-11.976-20.8-.786-1.374-1.994-2.44-3.516-3.092-10.374-3.458-26.488-5.38-41.762-3.258l-.367.05c-1.535.202-4.162.549-5.251 1.874-13.076 9.81-25.674 27.824-29.442 36.346-.918 1.47-1.424 3.416-1.418 5.54.356 1.78 1.082 3.484 2.202 5.608 1.593 3.02 2.21 4.424 2.75 5.648 1.057 2.403 1.807 4.109 9.028 15.97l2.97.488c-3.345-5.493-6.646-11.346-9.63-17.436l-.002.002c1.76-2.488 3.479-5.012 5.197-7.534 5.26-7.724 10.513-15.44 16.963-22.104 7.76-8.018 9.464-9.732 12.158-10.81.981 1.648 1.976 3.312 2.999 5.02 6.011 10.042 12.956 21.645 23.367 41.002-1.432.56-2.812 1.29-4.022 2.17-6.79 4.182-13.994 9.368-20.61 15.187l1.413.775c2.824-2.472 6.242-5.248 10.665-8.568a524.75 524.75 0 0 0 4.992-3.366c3.742-2.547 5.42-3.69 8.25-4.928.844 1.576 1.554 2.894 2.15 4 3.005 5.586 3.102 5.766 2.888 6.3-.271.678-1.016 1.181-1.674 1.626l-.006.004c-.432.292-8.097 6.405-16.132 12.824l4.524 3.701 7.514-1.571c4.552-1.106 9.066-1.774 13.6-2.168 4.307 0 8.47.796 12.517 2.078 2.175-1.465 4.05-2.724 5.677-3.816l.01-.007c9.76-6.55 10.624-7.131 14.156-10.653 1.36-.133.791-1.592.345-2.737l-.045-.117zm-44.402-11.348c7.596-2.08 27.658-.618 38.142 1.38-5.654-12.968-14.942-30.822-21.29-41.844-11.262-3.164-21.118-4.226-32.386-4.888-.965-.057-2.074-.144-3.219-.234-2.908-.23-6.043-.477-7.619-.28l26.372 45.866zm5.54-54.418c-4.45-1.326-12.288-2.59-17.932-3.154v.002c-7.702-.578-14.688-.514-21.294.158.86.787 1.42 1.803 1.946 2.756.109.197.216.391.324.58.533.888 1.026 1.67 1.568 2.53.68 1.08 1.438 2.283 2.452 3.974a8.934 8.934 0 0 1 3.25-.148c14.304.594 27.262 1.428 39.636 4.928l-2.684-4.476c-.742-1.662-1.67-3.21-2.94-4.902-1.09-1.274-2.592-2.054-4.326-2.248zm-71.44 34.526c-1.112 1.852-1.366 3.896-.768 6.092.669 1.668 1.365 3.083 2.318 5.022.37.752.778 1.582 1.238 2.536 3.802-6.328 7.504-11.958 11.286-17.116 4.292-5.874 15.968-20.866 22.686-23.654a744.983 744.983 0 0 1-1.533-2.59c-2.81-4.765-3.89-6.595-5.048-6.646-.721-.032-1.473.627-2.694 1.696-.233.205-.483.424-.753.656-11.138 9.546-20.382 21.304-26.732 34.004zm96.268 30.791c1.314.038 2.643.077 4 .111l.002-.002a42.88 42.88 0 0 1 8.154.978 283.95 283.95 0 0 0-3.516-8.58c-12.89-2.664-28.08-3.124-34.188-2.442-1.378 0-2.77.016-4.136.28 1.695 3.188 2.96 5.16 3.938 6.686.84 1.31 1.469 2.29 1.978 3.428 8.926-.892 16.075-.683 23.768-.459z" clip-rule="evenodd"/></g><g fill="currentColor"><path d="M102.19 149.122c13.11 1.458 17.178 3.964 27.396 11.826 2.24 1.67 4.437 3.362 6.592 5.079l-1.749.502a328.99 328.99 0 0 0-8.391-6.569c-5.856-4.956-11.4-7.356-17.738-8.476-18.988-3.078-38.236-4.61-64.112-2.28 27.11 34.444 56.309 64.29 76.008 85.096l-1.835.464c-2.635-2.786-4.723-4.982-5.331-5.624-18.632-19.548-46.584-47.59-70.444-78.482-9.92 13.054-28.24 40.474-31.516 56.942 5.309 8.014 14.55 19.492 25.189 31.802l-2.066-.42c-11.512-13.684-20.392-25.196-23.847-30.8-.328-.532-.126-.846-.04-1.266 2.924-14.164 13.548-32.036 21.522-43.996 3.25-4.78 6.322-9.552 9.74-13.97.24-.508.712-.61 1.752-.76 19.338-2.794 41.412-1.976 58.87.932z"/><path d="M26.538 187.5c-3.946 2.63-6.92 9.708-8.018 15.228 0 .986.842 1.158 1.16.53l.02-.052c2.47-8.64 6.2-12.36 7.66-14.912.222-.394-.36-1.106-.82-.792l-.002-.002zM31.77 191.826c-1.818-1.124-7.83 12.24-8.322 16.226 0 .76 1.096 1.172 1.186.466 6.904-16.18 6.236-13.042 7.47-15.92.078-.172-.034-.586-.334-.772zM43.442 206.064c-.942.942-1.516 2.274-2.316 3.712-1.404 2.52-2.198 4.154-3.268 6.834-.234.56.542 1.256.928.664 1.034-1.656 1.648-3.358 3.458-6.616 1.428-2.574 1.386-2.128 2.084-3.878.182-.438-.564-1.046-.884-.718l-.002.002zM53.692 217.298c-.192.184-3.078 5.574-3.2 5.774-.394.652.972 1.164 1.136.468.958-1.296 3.162-5.174 3.312-5.462.39-.448-.342-1.692-1.25-.78h.002zM56.59 223.092c-.05.1-1.088 1.584-2.544 4.496-.474.56.394 1.438 1.054.778.386-.386 2.442-3.28 2.994-4.376.68-.826-.932-2.004-1.504-.896v-.002zM60.554 229.356c-.192.2-1.344 1.722-2.102 3.614-.61 1.522.436 1.848.646 1.428.54-1.082 1.596-2.954 2.51-3.87.53-.53 1.352-1.408.962-2.048-.362-.594-1.552.002-2.018.876h.002zM108.136 190.71c-5.36-6.432-15.95-9.456-22.334-5.396 3.362-9.044-.26-19.32-8.688-24.236-1.746-1.018-3.052-1.57-4.528-1.886 4.708-2.588 9.054-5.174 10.314-11.144 0-.49-1.108-1.418-1.296-.592-1.932 5.778-7.648 9.04-12.888 11.662-.766.512-.448 1.416.52 1.728 13.242 1.818 19.928 16.23 13.372 27.164-.536 1.08.88 2.208 1.496 1.108 5.53-5.094 13.984-3.732 19.484.25 3.028 2.293 5.207 5.366 6.776 8.451l.798-2.819a29.227 29.227 0 0 0-3.026-4.29z"/><path fill-rule="evenodd" d="M54.494 174.15c-.394-.394-.986-.592-1.38-.394-.472 0-7.552 10.64-7.686 10.84-5.63 8.568-13.53 21.482-15.514 31.782-.118.608.03 1.414.496 2.094 2.572 3.756 9.295 12.028 17.586 21.666h2.538a716.403 716.403 0 0 1-8.93-10.392c.47-.752 8.726-16.402 12.582-22.696 9.091 12.282 15.013 20.52 25.174 31.782h2.405c-1.48-1.692-3.42-3.928-4.097-4.712 2.626-2.612 5.014-6.068 7.138-9.63 2.57 2.636 5.044 5.132 5.98 5.954a278.438 278.438 0 0 1-5.719 8.03h1.801c3.625-4.94 7.092-9.886 9.69-13.926 1.8 1.878 7.312 7.616 11.314 11.814l1.942-.674c-25.388-26.164-39.948-41.685-55.32-61.538zm23.212 42.98c-2.036 3.258-4.15 6.49-6.348 9.466v.002a374.662 374.662 0 0 0 5.5 6.59c.29-.378.59-.744.912-1.14.323-.394.67-.82 1.054-1.312 1.154-1.48 2.652-3.576 4.892-7.366-2.63-2.708-5.15-5.338-6.01-6.24zm11.418-.426c-1.048 1.978-2.194 4.13-3.446 6.31 2.39 2.434 4.704 4.84 5.964 6.182 1.274-1.88 2.55-3.8 3.818-5.792a791.682 791.682 0 0 1-3.964-4.188c-.79-.838-1.58-1.676-2.372-2.512zm-4.546 5.192a224.059 224.059 0 0 0 3.48-6.32c-1.904-2.014-3.83-4.02-5.718-6.046a585.44 585.44 0 0 1-3.876 6.374c1.226 1.092 3.63 3.476 6.114 5.992zm-13.98 3.762c3.632-5.556 7.266-11.294 10.708-17.22-5.3-5.706-10.516-11.478-15.584-17.384-.612.608-1.1 1.057-1.53 1.451-2.017 1.856-2.745 2.525-9.056 12.999 1.535 2.01 3.059 4.032 4.58 6.048 3.61 4.786 7.202 9.55 10.882 14.106zm-5.8-35.7c-3.818-4.478-7.56-9.028-11.182-13.694h-.002c-3.282 4.22-6.272 8.224-9.566 13.258 1.511 1.865 2.5 3.43 3.744 5.396 1.417 2.242 3.165 5.006 6.394 9.334.135-.218.294-.48.474-.774 1.544-2.524 4.604-7.53 6.732-10.014a11.29 11.29 0 0 1 3.406-3.506zm-21.804 1.21c-5.258 8.27-9.834 17.316-11.572 25.966l-.002.002c2.298 3.052 5.448 6.958 9.128 11.356 1.712-4.178 9.82-18.01 12.696-22.702-.496-.666-.991-1.326-1.483-1.984-3.094-4.131-6.087-8.127-8.767-12.638z" clip-rule="evenodd"/></g><g fill="currentColor"><path d="M210.364 185.134c-1.722-1.148-3.548-2.192-5.318-3.203l-.072-.041c-28.562-16.302-39.428-23.938-60.474-18.874-5.21 1.254-10.64 2.364-16.146 3.742-5.932.99-9.284 3.486-11.44 6.838-2.904 4.516-4.644 8.916-5.556 13.292-1.096 4.572-1.762 9.63-1.98 15.036-.372 8.208.198 15.508 10.972 21.746 2.344 1.604 6.906 4.516 12.486 7.852l1.866-.858c-6.942-4.182-12.989-8.284-16.57-11.232-7.756-5.476-7.484-15.046-6.378-22.78.69-5.758 1.782-10.57 3.336-14.718 2.654-7.58 5.796-11.514 13.582-12.814 32.044-7.4 31.876-10.7 78.686 17.608l3.006-1.594z"/><path fill-rule="evenodd" d="M188.81 173.219c5.486 3.135 10.974 6.272 16.46 9.603v-.004c.404 0 .82.97 0 1.38-8.82 1.838-21.002 4.732-29.366 8.082-.267.133-.546.253-.829.374-1.38.593-2.841 1.22-3.311 3.568-.197.493-.345.986-.493 1.479-.148.493-.296.986-.493 1.479a1864.132 1864.132 0 0 1-4.973 15.822c-10.506 6.048-21.283 11.56-32.275 16.456-.782.194-1.566.384-2.351.568-.452-.284-.863-.546-1.24-.786-1.05-.67-1.838-1.172-2.519-1.512-2.398-1.196-4.522-2.458-4.14-5.518 2.094-15.708 6.936-32.076 12.022-43.952.08-.191.158-.382.236-.573.889-2.166 1.745-4.253 4.1-5.339 3.449-1.326 5.7-1.733 8.776-2.288 2.231-.402 4.896-.883 8.766-1.85 2.091-.524 4.19-.932 6.283-1.339 1.06-.206 2.12-.412 3.177-.633 9.14-1.91 14.13.436 22.074 4.928l.096.055z" clip-rule="evenodd"/><path d="M126.209 175.624c-.622-.092-.808.814-.208.976 19.552 5.332 35.28 12.12 53.192 27.268.674.674 1.387 1.282 2.088 1.87l1.77-1.296c-18.94-16.826-40.171-26.252-56.842-28.818z"/></g><path fill="currentColor" d="M83.934 323.924c-4.76 3.242-4.838 11.936-.204 15.314 3.578 2.604 11.382 2.044 11.382-7.21 0-7.532-6.236-11.48-11.178-8.104zm5.452 14.992c-2.238 0-4.128-3.154-4.128-6.886s1.89-6.886 4.128-6.886c2.238 0 4.126 3.154 4.126 6.886s-1.89 6.886-4.126 6.886z"/><path fill="currentColor" d="M229.346 186.058c4.854-9.51 25.53-52.154 26.184-58.028-.404-4.046-6.7-5.074-9.026.356-.104.188-18.078 36.676-21.288 43.336-.306.02-.646.148-1.022.458-28.002 24.5-57.446 42.778-90.16 57.912-.592-.266-1.5.07-1.482.71-13.676 3.298-27.732 5.442-41.79 6.418-6.994.582-31.416 2.168-41.192 2.168-14.292.894-19.586-2.81-18.92-.986 2.76 8.278 6.504 15.964 11.234 23.256 5.124 9.066 10.84 17.738 16.556 26.41 4.562 6.514 4.502 8.362 9.264 11.826 2.366 1.182 4.736 1.91 7.292 2.168 3.828.386 13.114 2.48 33.314 3.656a163.379 163.379 0 0 0-17.152 8.76c-1.774.986-3.548 1.97-5.124 2.956-1.182.592-2.364 1.774-2.76 2.956-.788 2.958 2.366 4.14 4.534 4.336 15.418 1.792 71.584 5.4 78.378 5.5 2.304.902 2.902 4.03 3.154 4.536.318.636 1.182.452 1.182 0 .556-1.67-.326-3.944-1.796-5.136 9.488-6.44 48.802-33.56 55.864-42.742 1.97-2.168 3.178-4.044 3.376-7-.192-7.892-.34-18.062-1.082-26.02.678-.75 1.346-1.532 2.042-2.258 1.926-2.016 2.956-4.73 3.154-7.49 0-9.078.908-8.508-.788-39.026-.232-6.402-.924-12.73-1.94-19.036l-.006.004zm-123.96 75.546c4.732-.236 9.456-.522 14.15-.93 6.548-.376 13.268-.952 19.33-3.536 2.926 8.782 6.556 17.4 10.358 25.362-10.288 1.56-20.702 2.454-31.138 2.82a165.702 165.702 0 0 1-12.698-23.716h-.002zm10.77 23.776c-10.434.298-22.612-.166-33.022-.92-4.15-6.988-8.172-14.946-11.652-22.292 11.63.188 22.328-.026 32.322-.488 4.222 9.748 7.966 16.754 12.354 23.702l-.002-.002zm65.352-19.914c-15.564 9.982-22.238 12.478-30.32 16.72-4.03-8.362-7.47-17-10.388-25.824 10.872-4.114 24.038-11.412 33.594-17.092 2.586 8.912 4.854 17.058 7.114 26.198v-.002zm-5.688-27.038c10.122-6.09 19.324-12.382 29.19-20.328 1.998 8.336 3.452 17.74 4.46 25.882-6.732 6.32-14.542 12.724-26.494 20.518-2.556-10.056-4.258-16.602-7.154-26.074l-.002.002zm-25.842 45.608c2.502 5.148 5.178 10.392 9.734 17.832a299.415 299.415 0 0 1-27.736 2.01 164.128 164.128 0 0 1-12.972-17.136c13.242-.362 22.122-1.264 30.974-2.708v.002zm1.938-.406c9.032-4.008 22.51-11.87 29.958-16.646 1.584 6.492 2.184 8.966 4.438 20.69-6.426 4.564-17.454 11.152-24.154 13.622-3.784-5.994-7.122-11.32-10.242-17.666zm31.448-17.612c9.198-6.02 17.39-12.064 26.294-20.5 1.126 9.462 1.526 18.884 1.526 19.096 0 1.146.014 2.294.24 3.44-8.158 7.922-11.44 9.808-23.652 18.578-1.154-6.872-2.688-13.744-4.41-20.614h.002zm22.876-48.944c8.34-6.804 15.022-12.606 22.318-20.746.662 7.184 1.208 16.544 1.48 23.752-5.604 7.272-9.072 12.896-19.244 22.638-1.086-9.018-2.64-17.446-4.554-25.644zm41.21-86.878c2.116-5.642 6.988-4.506 6.11-1.576-2.966 8.898-19.218 42.96-24.732 54.34-.596-3.294-1.256-6.584-2.046-9.874 7.314-13.776 13.654-29.05 20.668-42.892v.002zm-22.504 43.896c1.64 6.862 2.8 13.944 3.504 20.984-9.224 8.478-5.362 6.382-22.598 20.436-1.822-7.58-3.54-14.166-6.22-21.446 9.992-7.248 18.98-14.468 25.316-19.974h-.002zm-26.444 20.806c1.988 7.266 4.29 14.254 6.136 21.586-9.228 7.456-19.148 14.192-29.308 20.32-.896-2.886-1.87-5.752-2.776-8.654-1.402-4.492-2.826-9.036-4.674-13.554 10.994-6.426 20.28-12.268 30.622-19.7v.002zm-31.804 20.368c2.136 5.854 3.224 8.524 7.23 22.382-19.66 11.708-27.872 14.308-33.64 17.188-2.054-6.362-4.222-13.754-5.67-23.492 10.948-4.812 21.714-10.104 32.08-16.08v.002zm-33.898 17.15c1.182 7.77 3.096 15.516 5.522 23.068-8.43 3.692-17.408 3.612-33.56 4.57-6.556-15.508-5.886-17.422-7.476-21.844 15.284-1.482 25.208-3.242 35.514-5.792v-.002zm-36.824 5.906c.316 2.494 1.304 4.512 4.246 14.072a111.961 111.961 0 0 0 2.93 7.756c-9.662.578-22.656.682-32.336.622-4.334-9.246-4.836-10.886-8.576-20.456 11.258-.398 22.522-.95 33.738-1.994h-.002zM41.082 257.78c-3.364-5.942-6.224-11.768-8.816-18.402 9.586 1.632 19.446 1.314 28.842.978 1.35 4.888 3.2 10.558 7.768 20.394-10.704-.088-20.134-.012-27.794-2.97zm.858 1.486c5.27 1.828 10.45 2.588 16.102 2.588 3.79.112 7.636.21 11.48.288 3.766 8 6.48 13.614 11.428 22.134-9.444-.738-16.612-1.266-26.066-4.368-4.046-6.178-9.25-14.246-12.946-20.642h.002zm48.624 42.796c-19.136-2.314-21.316-2.376-25.03-6.504-2.098-2.624-2.804-3.748-9.58-14.04 8.226 3.184 17.002 3.742 25.794 4.144 2.686 4.554 7.582 12.562 10.974 16.618-.718-.078-1.44-.132-2.158-.218zm4.41.446c-1.764-2.576-3.552-4.284-11.066-16.748 9.454.424 16.954 1.342 33.116 1.008 4.198 6.5 7.996 11.48 12.79 17.15a290.74 290.74 0 0 1-34.84-1.41zm131.584-22.126c-.196 1.774-1.182 3.35-2.364 4.73-1.972 2.366-4.336 4.534-6.702 6.504-9.614 8.136-38.458 29.204-50.708 37.03-3.562-.436-19.252-1.06-23.202-1.356-58.91-4.416-57.838-3.878-58.93-5.518-.394-.788.394-1.576.986-2.168 4.2-3 19.984-10.964 26.288-13.674 16.882.778 34.174-.082 49.594-2.092.2 0 5.782-2.332 10.644-5.322 6.684-4.11 14.9-9.156 30.55-20.892 9.222-7.01 15.28-13.892 23.096-22.566.92 22.602.752 21.474.752 25.326l-.004-.002zm3.154-33.308c-1.182 2.956-3.942 5.124-5.914 7.49-1.97 2.366-3.942 4.336-5.912 6.702a107.304 107.304 0 0 1-5.014 5.342 28.62 28.62 0 0 0-.308-5.146c-.744-9.68-.918-11.522-1.584-17.196 5.25-5.088 14.806-15.106 19.15-21.66.216 6.992.174 9.524.174 17.174.196 2.562 0 4.928-.592 7.292v.002z"/><path fill="currentColor" d="M167.648 332.804c-5.182 3.508-5.33 13.1-.24 16.806 3.988 2.9 12.45 2.036 12.45-8.128 0-9.208-7.834-11.644-12.21-8.678zm5.892 16.55c-2.558 0-4.72-3.606-4.72-7.874s2.162-7.872 4.72-7.872 4.718 3.604 4.718 7.872-2.162 7.874-4.718 7.874zM223.108 287.488c-4.58 3.148-4.584 11.308-.176 14.444 3.434 2.446 10.338 1.584 10.338-6.962 0-7.452-5.674-10.562-10.162-7.48v-.002zm4.83 13.972c-2.024 0-3.734-2.972-3.734-6.492s1.71-6.492 3.734-6.492 3.734 2.972 3.734 6.492-1.71 6.492-3.734 6.492z"/><g fill="currentColor"><path d="M389.948 116.206c-7.096-22.666-21.484-41.784-36.068-60.31-1.576-1.972-3.154-4.73-5.716-5.716-2.524-.722-6.064-.316-8.672 0-5.9.716-12.022 1.774-17.738 3.548-11.628 3.546-22.666 8.672-32.718 15.57-11.234 7.49-21.878 16.162-31.338 25.818-.394.394-.394.79-.198 1.184.018 4.632.198 21.088.198 21.088-.198 1.97 0 3.942.196 5.912.592 2.562 1.578 5.124 2.956 7.292 4.13 8.258 6.866 12.224 15.57 15.57 6.992 3.212 13.614 7.16 19.706 11.822.546.82 1.552.5 1.864-.098 27.59-21.112 55.348-34.75 91.364-40.696.394-.198.788-.592.592-.986l.002.002zm-123.2 16.898c-1.52.06-3.182-1.604-1.84-3.386.796-1.056 2.664-1.556 3.516.252.61 1.294.072 3.066-1.676 3.132v.002zm30.708 23.188c-9.902-15.726-34.988-55.82-37.796-60.166 23.214-22.816 50.582-41.8 83.182-43.976a15.9 15.9 0 0 1 4.336 0c1.38.59 2.562 1.578 3.154 2.758 16.59 20.736 29.686 37.922 37.328 60.594-35.996 5.858-69.962 23.656-90.204 40.788v.002z"/><path d="M263.62 131.338c-2.89-.06-5.28 2.124-7.5 3.788a61.464 61.464 0 0 0-7.902 6.904c-3.858-3.348-9.686-1.704-10.626 3.936 0 .704.868.464 1.126-.19 1.73-4.382 5.296-6.002 9.122-2.174 1.088 1.088.964-.528 8.672-6.702 2.396-1.92 4.294-3.68 7.162-4.246.772-.152.564-1.302-.056-1.314l.002-.002zM367.532 90.306c.122-1.696-1.434-3.902-3.618-4.974-1.728-.43-3.038.048-6.64.784-.234.048-.614.412-1.336-.046-.428-.272-.766-.702-1.012-1.112.616-.332 2.598-1.222 3.4-2.132.814-.924.444-1.872.31-2.814-.25-1.764-1.404-3.506-3.376-3.966-4.498 0-4.448 1.904-5.65-.918.966-.31 3.674-1.016 5.368-1.612 1.984-.698 2.41-5.708-.312-7.41a.732.732 0 0 0-.392-.112c-4.496 0-8.416 1.17-11.654 3.482-4.844 3.242-3.638 6.518-2.412 9.486 2.534 6.136 4.072 10.274 8.744 16.888 1.592 2.388 3.526 3.322 7.126 1.876 2.678-.766 7.322-2.924 9.978-4.38 1.37-.752 1.41-2.108 1.478-3.042l-.002.002zm-2.376.808c-2.688 1.448-5.356 2.554-8.004 3.316-3.324 1.33-4.418.196-5.428-1.316-4.512-6.394-6.048-10.444-8.596-16.618-1.33-3.222-1.512-4.53.322-5.796 2.962-2.046 6.504-3.186 10.592-3.224.976.776 1.588 2.926.422 3.28-4.924 1.404-8.212 1.788-5.556 6.214.702 1.172 1.968 1.498 3.43.912.218-.072 1.554-.356 2.742-.376 1.36.34 2.262 2.252 2.1 3.21-1.392 1.346-2.17 1.194-3.684 2.336-1.52.922 1.254 5.824 4.17 4.49 2.846-.62 4.56-1.104 5.736-.832 1.604.802 2.724 2.504 2.654 3.492-.02.286-.128.642-.902.912h.002zM304.312 113.184c-2.27-5.998-8.118-8.214-11.824-6.724a15.11 15.11 0 0 0-4.06 2.43c-1.298.864-2.052.934-2.324.714-.36-.292-.406-1.3-.096-2.074.47-1.178 1.824-2.074 2.55-2.416 3.258-1.536 2.994-5.824.02-7.306-1.52-.76-3.3-.842-4.8-.198-5.74 2.868-9.16 10.142-6.232 17.172 2.54 5.92 7.456 6.99 11.14 4.66 1.218-.77 2.208-1.604 3.18-2.382 1.058-.694 2.078-.71 2.8-.046.996.92 1.988 4.414-2.61 4.374-4.254.008-6.992 4.288-6.422 6.958.58 2.708 3.168 4.714 6.98 4.23 4.224 0 8.63-4.132 10.31-6.614 2.518-3.716 2.976-8.584 1.388-12.776v-.002zm-9.85 16.084c-6.238.786-6.818-5.86-3.654-6.412 3.884.022 4.562.282 6.922-2.102 3.1-4.65-.592-9.524-4.822-6.704-.954.764-1.924 1.582-3.072 2.308-2.918 1.846-6.816 1.08-8.99-3.986-3.216-7.718 1.994-15.782 7.068-13.246 1.87.934 2.152 3.636.01 4.648-.414.196-2.518 1.27-3.292 3.206-.488 1.22-.464 2.958.538 3.77.936.76 2.306.544 4.138-.678a14.13 14.13 0 0 1 3.728-2.242c3.028-1.214 8.058.844 9.884 5.864 2.976 8.182-2.438 15.562-8.462 15.574h.004zM313.672 95.46a.741.741 0 0 0 .578-1.202c-.948-1.184-3.99-4.022-5.898-4.022a.74.74 0 0 0-.74.74c0 .842-.578 1.744.204 7.976.09.724 1.068.89 1.394.24.628-1.256 3.59-3.73 4.462-3.73v-.002zm-4.594 1.504c-.196-1.968-.214-3.176-.176-3.994.928.45 1.928 1.092 2.742 1.824-.902.584-1.836 1.392-2.566 2.17z"/><path d="M327.17 103.514c-1.816-4.538-2.744-11.494-13.482-18.276-3.046-2.032-6.26-2.496-8.596-1.246-1.344.72-4.916 4.24-5 8.348-.1 4.792.408 9.642 1.806 14.44 1.002 3.258 3.808 11.108 8.356 13.69 2.308.77 5.076-2.712 4.724-5.118-.36-2.45-2.532-5.36-4.052-10.068a39.412 39.412 0 0 1 3.764-2.252c3.014 6.2 3.6 9.938 5.914 10.698 3.496 1.752 8.826-4.188 6.566-10.214v-.002zm-13.916 13.462c-.084.126-.184.284-.596.164-4.068-2.324-6.802-10.37-7.54-12.77-1.352-4.632-1.842-9.324-1.746-13.984.124-5.934 4.77-7.068 9.51-3.908 10.102 6.38 10.936 12.588 12.894 17.538.866 3.502.134 5.58-.76 6.296-.688.552-1.44.362-2.046.068-1.638-.546-2.454-4.608-5.484-10.666a.738.738 0 0 0-.992-.33c-2.346 1.174-5.442 3.02-7.09 4.672a.74.74 0 0 0-.188.724c1.81 6.338 5.326 10.262 4.038 12.198v-.002z"/><path d="M347.622 91.408c-.94-1.004-2.22-1.284-3.414-.942-4.796 1.374-6.94 2.75-8.71 3.926-2.564-6.116-6.188-11.688-10.264-15.764-1.37-1.37-2.92-1.788-4.05-1.09-.756.468-3.422 2.27-2.224 5.836 4.768 9.63 7.03 13.586 9.702 21.59.702 3.16 4.45 4.058 6.566 1.938 2.786-2.784 7.47-5.292 10.744-6.11 3.262-.512 4.908-5.91 1.652-9.386l-.002.002zM321.96 78.794c.622-.382 1.658.308 2.228.878 4.124 4.124 7.776 9.846 10.282 16.11a.739.739 0 0 0 1.096.34c2.624-1.746 4.442-2.982 9.048-4.238 3.146-.858 4.072 5.476.61 6.256-3.588.808-7.026 2.936-10 5.91-1.268 1.268-3.61.872-4.098-1.288-2.624-7.868-5.054-12.366-9.264-20.696-.614-1.842-.394-2.972.096-3.276l.002.004z"/></g></svg>