<svg width="1024" height="1024" viewBox="0 0 1024 1024" fill="none" xmlns="http://www.w3.org/2000/svg">
<path d="M502.444 79.5379C515.894 77.4993 533.836 81.5635 546.275 86.5479C551.96 88.826 557.422 91.9196 563.313 93.6267C567.473 94.8324 571.852 95.2293 576.13 95.8348C598.791 99.0428 618.201 112.156 631.747 130.294C655.655 162.304 659.526 208.274 654.04 246.819C666.684 246.911 681.035 246.564 693.339 249.387C699.659 250.836 703.611 255.857 708.878 259.186C712.662 261.577 717.107 263.285 721.333 264.704C729.566 267.47 738.341 269.253 746.965 270.235C752.168 270.828 757.736 271.017 762.835 272.14C764.272 272.457 765.244 272.899 766.398 273.798C767.116 275.675 766.998 278.022 766.947 280.012C766.549 295.313 764.869 310.71 763.869 325.993C762.589 348.121 761.152 370.239 759.559 392.346C757.61 416.733 756.046 441.144 754.867 465.58C773.862 470.232 792.917 476.717 808.853 488.378C831.727 505.116 843.304 529.188 847.526 556.639C854.551 558.737 861.242 560.966 866.094 566.865C872.206 574.296 872.109 583.292 871.128 592.288C871.285 592.392 871.443 592.491 871.597 592.598C886.234 602.778 894.831 620.637 897.67 637.836C900.662 655.964 899.746 676.686 888.53 692.034C880.476 703.054 868.869 708.079 855.705 710.096C848.008 717.699 839.414 723.493 828.018 722.255C824.565 721.88 821.255 720.582 817.737 720.86C811.016 721.392 805.003 724.526 798.046 724.431C787.639 724.289 778.189 719.661 771.054 712.215C760.082 700.765 759.002 688.185 759.342 673.097C757.435 670.373 755.518 667.652 753.944 664.717C748.594 654.739 748.08 643.035 751.469 632.309C755.942 618.147 767.008 606.453 780.078 599.769C779.097 594.364 779.268 588.616 781.155 583.425C784.731 573.589 792.45 568.616 801.496 564.456C799.999 555.527 797.477 546.839 792.876 538.986C783.799 523.494 768.529 515.418 751.661 510.972L743.394 630.341C742.823 638.764 741.39 680.067 739.18 685.621C729.846 690.316 708.153 692.694 697.237 694.404C685.288 696.258 673.358 698.229 661.448 700.318C652.692 701.836 643.482 703.993 634.581 704.059C624.447 704.134 613.998 702.315 603.975 700.955C584.314 698.287 561.404 694.538 541.787 694.029C543.554 706.343 548.394 718.386 556.373 728.002C568.322 742.402 585.095 747.455 603.146 749.158C603.922 747.014 604.822 744.924 605.846 742.886C610.385 733.758 617.529 726.232 627.408 723.055C636.474 720.14 644.126 721.91 652.394 726.109C656.549 723.95 660.534 722.122 665.172 721.282C674.963 719.509 684.197 722.215 692.212 727.91C708.374 739.393 723.272 749.059 726.822 769.919C731.835 799.376 723.155 853.939 710.278 880.689C704.712 892.252 696.546 902.42 689.189 912.868C698.887 913.558 728.828 913.309 736.105 918.83C737.257 919.703 737.45 920.305 737.677 921.683C737.365 922.588 737.015 923.237 736.345 923.917C733.53 926.773 726.927 928.214 723.007 928.983C700.204 933.457 675.062 934.172 651.773 935.979C597.893 940.339 543.934 943.214 489.895 944.604C457.298 945.429 424.695 945.839 392.087 945.834C380.02 945.796 367.958 945.559 355.899 945.125C328.13 944.346 301.46 943.442 277.423 927.534C259.904 915.941 251.369 903.153 247.174 882.817C218.632 866.606 192.635 846.146 178.444 815.691C168.852 795.107 165.373 770.426 173.358 748.695C173.71 747.763 174.084 746.839 174.481 745.924C174.878 745.01 175.297 744.106 175.738 743.212C176.179 742.318 176.642 741.436 177.126 740.564C177.611 739.693 178.116 738.834 178.642 737.987C179.168 737.141 179.715 736.307 180.282 735.487C180.849 734.667 181.435 733.862 182.042 733.07C182.648 732.279 183.273 731.503 183.918 730.742C184.562 729.982 185.224 729.237 185.905 728.508C186.586 727.78 187.284 727.068 187.999 726.374C188.714 725.68 189.446 725.004 190.195 724.345C190.943 723.687 191.707 723.047 192.487 722.425C193.266 721.805 194.061 721.203 194.87 720.62C195.679 720.038 196.502 719.476 197.338 718.933C198.175 718.391 199.024 717.87 199.886 717.369C200.748 716.869 201.622 716.389 202.508 715.931C203.393 715.473 204.289 715.037 205.196 714.623C221.679 707.106 241.235 707.066 258.098 713.457C283.802 723.201 297.967 746.989 308.739 770.787C310.421 769.426 312.118 768.166 313.97 767.049C320.733 762.973 327.318 762.888 334.76 764.717C346.03 738.553 359.41 715.218 379.476 694.781C385.572 688.573 392.135 682.884 398.52 676.982C383.039 674.484 367.288 673.178 351.711 671.391L251.747 660.26C249.269 659.975 243.288 659.271 241.73 657.288C240.808 654.203 241.302 650.438 241.657 647.277C244.242 624.242 248.503 601.19 251.895 578.235C257.013 543.597 261.627 508.835 267.124 474.26C264.052 473.539 261.017 472.686 258.019 471.7C255.022 470.715 252.072 469.602 249.171 468.36C246.27 467.119 243.428 465.754 240.645 464.266C237.862 462.778 235.149 461.173 232.506 459.449C201.564 439.388 186.551 406.45 179 371.599C175.374 370.345 171.723 369.112 168.224 367.53C160.452 364.016 152.819 358.033 149.898 349.727C147.62 343.25 148.874 336.441 151.879 330.469C149.442 328.668 147.059 326.715 144.91 324.577C131.103 310.839 124.908 291.276 125.001 272.094C125.07 257.815 128.894 244.048 139.338 233.804C146.617 226.664 154.284 224.164 164.407 224.321C169.385 217.219 173.724 214.274 182.019 211.769C178.211 193.402 169.253 174.453 167.551 156.117C166.901 149.114 167.108 142.034 171.984 136.426C172.201 136.174 172.424 135.928 172.653 135.688C172.882 135.448 173.117 135.213 173.358 134.985C173.599 134.757 173.846 134.535 174.099 134.319C174.352 134.103 174.609 133.894 174.872 133.691C175.135 133.489 175.404 133.293 175.677 133.104C175.95 132.916 176.228 132.734 176.51 132.559C176.793 132.385 177.079 132.217 177.37 132.056C177.661 131.897 177.956 131.744 178.255 131.599C178.554 131.454 178.856 131.317 179.162 131.187C179.467 131.057 179.776 130.936 180.088 130.822C180.4 130.708 180.715 130.602 181.033 130.504C181.35 130.407 181.67 130.317 181.992 130.236C182.314 130.154 182.638 130.081 182.963 130.016C183.289 129.951 183.616 129.895 183.945 129.846C184.273 129.798 184.602 129.758 184.933 129.727C185.264 129.695 185.595 129.672 185.927 129.658C193.918 129.241 201.528 133.2 207.321 138.421C230.168 159.018 235.031 201.6 236.441 230.735C246.449 230.929 254.712 232.045 262.123 239.403C269.229 246.458 272.025 256.073 271.94 265.903C271.731 290.343 260.956 304.394 244.437 320.773C247.443 326.872 248.739 332.621 246.729 339.34C243.345 350.65 233.434 358.155 223.544 363.587C225.265 372.523 227.017 381.254 230.386 389.755C239.305 412.26 252.095 421.55 273.519 430.905C278.653 389.239 285.569 347.58 291.736 306.044C295.037 283.81 297.117 261.181 301.035 239.072C301.496 236.473 302.041 233.847 303.501 231.61C310.191 227.862 371.651 233.818 384.264 233.924C388.708 192.098 397.492 152.373 425.086 119.225C445.118 95.1601 471.484 82.3834 502.444 79.5379ZM252.739 647.927L627.299 690.445C629.025 690.597 630.722 690.823 632.434 691.092C645.269 595.432 657.439 499.686 668.944 403.856L680.123 310.361C681.843 295.581 682.919 276.447 685.922 262.41C671.248 260.891 656.34 260.452 641.601 259.628C613.963 258.018 586.314 256.62 558.655 255.434L418.68 247.986L351.123 244.357C338.886 243.802 324.498 244.471 312.635 242.374L268.535 541.345C263.167 576.835 258.882 612.563 252.739 647.927ZM461.62 911.06C476.812 909.918 492.012 908.905 507.221 908.022C519.997 907.293 533.353 906.525 546.11 907.672C544.586 899.72 544.119 893.687 548.901 886.603C549.211 886.143 549.525 885.685 549.843 885.23C546.228 874.516 545.924 862.632 550.969 852.305C556.32 841.354 565.874 834.12 577.296 830.317C585.062 827.731 592.937 827.707 600.839 826.142C602.171 820.353 602.385 814.459 603.357 808.624C600.647 803.084 599.195 798.381 598.091 792.337C564.704 788.14 540.022 780.432 518.381 752.686C503.679 733.837 497.082 711.072 493.009 687.915C479.1 686.266 464.973 686.124 451.117 684.276C409.592 717.983 389.351 747.619 374.228 798.561C381.588 810.436 388.102 825.618 384.705 839.882C383.508 844.908 381.025 849.007 376.586 851.771C373.978 853.395 370.784 854.093 367.819 854.781C372.18 870.564 372.39 889.95 364.191 904.56C361.391 909.549 357.365 913.647 354.03 918.262C351.298 922.043 349.044 926.296 345.889 929.738C368.365 927.36 390.975 930.203 413.394 925.609C410.005 924.157 405.84 922.948 403.745 919.727C403.666 919.047 403.419 918.622 403.89 918.045C407.879 913.154 452.619 911.794 461.62 911.06ZM644.354 690.083C671.25 687.12 699.242 681.116 726.044 676.582C719.285 670.247 712.509 663.975 706.487 656.916C701.711 651.319 697.516 644.848 692.332 639.657C687.075 644.923 681.967 650.331 677.009 655.88C672.26 661.218 667.508 667.695 661.761 671.928C660.22 673.063 658.338 673.777 656.578 674.504C656.671 674.329 656.761 674.152 656.857 673.978C662.266 664.104 672.034 652.88 679.244 643.982C682.216 640.314 684.987 636.499 686.801 632.11C692.333 618.724 691.467 595.736 693.779 580.753L697.822 543.592C699.247 530.465 700.525 517.256 703.029 504.279C697.138 499.647 693.813 494.642 692.92 487.025C692.182 480.73 692.787 473.844 696.786 468.668C700.52 463.835 706.26 461.801 712.152 461.191C722.181 460.151 733.474 461.846 743.332 463.869L755.791 282.021C747.349 281.609 738.771 281.322 730.373 280.403L719.176 392.615C717.314 410.158 716.356 428.322 713.273 445.672C713.265 445.72 713.256 445.768 713.248 445.815C712.684 448.987 712.094 452.303 710.164 454.945L709.428 454.902C708.667 453.43 708.246 452.241 708.103 450.58C707.089 438.823 708.769 426.213 709.303 414.436C710.805 381.29 714.309 348.283 716.849 315.207C717.791 302.942 719.105 290.558 719.383 278.262C711.489 275.557 703.307 272.399 696.424 267.586C693.102 303.485 688.207 339.396 683.819 375.186L657.974 582.332L648.774 652.483C647.141 665.005 645.115 677.463 644.354 690.083ZM610.743 825.918C623.653 825.862 654.22 826.904 663.364 835.613C664.367 836.568 665.153 837.76 665.15 839.192C665.15 839.253 665.15 839.311 665.15 839.366C665.151 840.373 665.152 840.503 664.378 841.341C657.354 842.275 645.987 837.614 638.97 835.874C634.984 834.885 630.92 834.236 626.95 833.175L626.538 833.387C635.47 839.322 642.25 838.39 651.42 847.892C652.962 849.49 654.712 851.432 655.289 853.628C655.512 854.482 655.419 854.245 654.977 855.137C653.424 855.56 652.061 854.931 650.708 854.185C647.82 852.593 645.251 850.424 642.332 848.912C625.945 840.423 601.93 835.54 583.938 840.445C582.787 840.758 581.658 841.133 580.549 841.57C571.924 845.04 564.331 850.059 560.411 858.844C557.296 865.826 556.887 874.711 559.829 881.788C563.392 890.361 571.458 895.807 579.8 899.11C600.684 907.379 634.189 907.233 654.835 898.268C672.435 890.625 683.707 874.185 690.458 856.79C700.517 830.874 709.209 779.103 697.859 753.539C694.11 745.093 687.596 736.718 678.712 733.362C674.581 731.802 670.547 731.35 666.186 731.963L662.376 732.602L661.832 733.401C662.747 737.916 666.584 741.945 668.317 746.288C675.315 763.819 672.893 785.316 662.363 800.999C656.28 810.06 647.354 816.491 636.566 818.572C627.921 820.24 620.381 818.736 612.419 815.241C611.671 818.79 611.175 822.319 610.743 825.918ZM313.221 886.447C319.475 892.324 326.497 897.957 331.966 904.579C335.447 909.138 337.347 913.689 338.717 919.251C341.659 915.206 343.69 911.637 342.973 906.399C340.52 888.487 315.26 873.555 303.181 861.556C286.841 845.326 279.297 825.352 269.692 804.969C260.551 785.571 247.894 765.003 230.309 752.297C222.236 746.465 213.078 742.97 203.005 744.02C196.299 744.578 190.479 746.17 185.968 751.577C179.154 759.744 178.27 772.261 179.413 782.387C181.324 799.322 189.22 817.757 199.865 831.023C207.311 840.302 220.952 852.163 230.406 859.647C249.419 874.696 272.265 882.662 296.615 879.685C300.336 879.23 308.918 876.871 312.018 879.454C313.28 880.506 313.127 884.835 313.221 886.447ZM706.462 752.085C715.3 789.575 708.184 848.508 687.839 881.336C678.311 896.711 663.566 906.726 645.991 910.77C623.584 915.926 585.378 914.551 565.735 902.02C561.906 899.577 558.675 896.602 555.538 893.341C555.102 898.589 554.889 903.973 558.643 908.186C558.846 908.415 559.058 908.636 559.265 908.861C577.431 924.282 608.642 925.802 631.398 923.873C653.116 922.033 672.193 914.917 686.49 897.913C709.724 870.279 720.947 815.323 717.747 779.833C716.95 770.984 714.559 758.382 707.068 752.536C706.869 752.382 706.664 752.235 706.462 752.085ZM159.794 335.11C159.72 342.254 160.628 347.455 165.734 352.845C177.154 360.54 190.205 361.955 203.548 359.39C214.692 357.249 227.874 351.637 234.284 341.738C236.089 338.95 237.356 335.836 236.523 332.494C236.062 330.646 235.067 328.463 233.562 327.264C213.277 337.701 191.582 345.992 168.692 338.67C165.638 337.693 162.715 336.423 159.794 335.11ZM604.929 245.285C613.364 245.732 621.903 245.606 630.304 246.364C631.222 246.196 631.429 246.387 631.986 245.56C636.365 239.055 634.308 206.775 633.251 197.751C632.569 192.144 631.53 186.604 630.133 181.13C624.972 160.744 612.921 138.038 594.204 126.964C593.967 126.823 593.708 126.722 593.46 126.601C608.987 157.123 613.429 185.015 609.224 218.768C608.122 227.614 605.692 236.461 604.929 245.285ZM728.797 673.679C730.523 663.373 730.888 652.844 731.484 642.423C732.21 629.001 733.021 615.585 733.917 602.173L738.29 539.828C739.017 529.545 740.126 519.143 740.418 508.843C734.121 507.755 727.886 507.037 721.516 506.544C717.629 506.243 712.873 506.444 709.134 505.461C706.616 522.607 705.453 540.093 703.635 557.344C701.113 581.271 697.888 606.808 696.958 630.75C705.235 644.319 717.497 662.547 728.797 673.679ZM410.204 235.621C413.736 195.833 425.695 151.913 457.531 125.414C458.4 124.698 459.284 123.999 460.181 123.318C461.078 122.637 461.988 121.974 462.911 121.329C463.835 120.684 464.771 120.057 465.719 119.449C466.667 118.841 467.627 118.252 468.599 117.683C469.57 117.113 470.553 116.563 471.546 116.032C472.54 115.501 473.544 114.99 474.557 114.499C475.571 114.008 476.594 113.537 477.626 113.087C478.659 112.636 479.7 112.207 480.749 111.797C481.798 111.388 482.856 111 483.921 110.633C484.986 110.266 486.057 109.92 487.136 109.595C488.215 109.27 489.299 108.967 490.39 108.686C491.48 108.404 492.576 108.144 493.677 107.906C494.778 107.668 495.883 107.451 496.992 107.257C498.102 107.063 499.215 106.891 500.331 106.74C501.448 106.59 502.567 106.462 503.688 106.356C504.809 106.251 505.932 106.167 507.057 106.106C525.877 105.665 544.368 112.186 558.091 125.217C577.412 143.562 583.474 169.664 584.038 195.427C584.392 211.593 581.637 228.029 578.971 243.928C578.951 244.045 578.932 244.161 578.912 244.277C583.93 244.474 589.008 244.514 594.011 244.917C595.069 235.291 597.004 225.788 597.891 216.144C600.868 183.75 596.35 149.241 575.357 123.137C574.92 122.595 574.477 122.058 574.026 121.527C573.576 120.996 573.119 120.47 572.656 119.95C572.193 119.431 571.723 118.917 571.247 118.408C570.771 117.9 570.289 117.398 569.8 116.902C569.311 116.405 568.817 115.915 568.317 115.431C567.816 114.947 567.31 114.469 566.797 113.998C566.284 113.526 565.766 113.061 565.242 112.603C564.719 112.144 564.189 111.692 563.654 111.246C563.119 110.801 562.578 110.362 562.032 109.93C561.486 109.498 560.935 109.072 560.378 108.654C559.821 108.235 559.26 107.824 558.693 107.419C558.126 107.015 557.555 106.617 556.978 106.227C556.401 105.836 555.82 105.453 555.234 105.077C554.648 104.701 554.057 104.333 553.462 103.971C552.867 103.61 552.267 103.256 551.663 102.909C551.059 102.563 550.451 102.224 549.839 101.892C549.226 101.561 548.61 101.237 547.989 100.921C547.369 100.605 546.745 100.296 546.117 99.9958C545.489 99.6951 544.857 99.4022 544.222 99.1171C543.587 98.832 542.948 98.5549 542.305 98.2857C541.663 98.0164 541.018 97.7552 540.369 97.5019C539.72 97.2487 539.069 97.0035 538.414 96.7664C537.759 96.5293 537.102 96.3004 536.441 96.0795C535.781 95.8587 535.118 95.6461 534.452 95.4418C533.787 95.2374 533.119 95.0413 532.448 94.8534C531.777 94.6656 531.105 94.4861 530.43 94.3149C529.755 94.1438 529.078 93.981 528.399 93.8266C527.72 93.6722 527.039 93.5262 526.356 93.3887C525.673 93.2512 524.989 93.1221 524.304 93.0015C523.618 92.881 522.931 92.7689 522.242 92.6653C521.553 92.5618 520.864 92.4668 520.173 92.3803C519.482 92.2938 518.79 92.2159 518.097 92.1466C513.842 91.7142 509.264 91.487 505.014 92.0324C504.127 92.1129 503.24 92.2045 502.355 92.3074C501.47 92.4102 500.587 92.5242 499.705 92.6493C498.822 92.7744 497.942 92.9105 497.063 93.0578C496.184 93.2051 495.308 93.3634 494.433 93.5328C493.558 93.7021 492.686 93.8825 491.816 94.0739C490.945 94.2652 490.078 94.4675 489.213 94.6807C488.348 94.8939 487.485 95.118 486.626 95.3529C485.767 95.5878 484.91 95.8335 484.057 96.09C483.204 96.3465 482.354 96.6138 481.507 96.8917C480.66 97.1696 479.817 97.4582 478.978 97.7573C478.139 98.0564 477.303 98.3661 476.472 98.6863C475.641 99.0065 474.813 99.3371 473.99 99.6782C473.167 100.019 472.348 100.371 471.534 100.732C470.719 101.094 469.91 101.466 469.105 101.848C468.3 102.23 467.5 102.622 466.705 103.024C465.91 103.426 465.121 103.839 464.336 104.261C463.551 104.683 462.772 105.115 461.998 105.557C461.224 105.998 460.456 106.45 459.694 106.911C458.931 107.372 458.175 107.843 457.424 108.323C456.673 108.803 455.929 109.293 455.191 109.791C454.453 110.29 453.721 110.798 452.996 111.316C452.271 111.833 451.552 112.36 450.839 112.895C450.127 113.431 449.422 113.975 448.723 114.528C448.025 115.081 447.334 115.643 446.649 116.214C445.965 116.785 445.288 117.364 444.618 117.951C443.949 118.539 443.287 119.135 442.632 119.74C441.977 120.344 441.33 120.957 440.691 121.577C440.052 122.198 439.42 122.827 438.797 123.463C438.174 124.1 437.558 124.744 436.951 125.396C436.344 126.048 435.746 126.708 435.155 127.375C434.564 128.042 433.982 128.717 433.409 129.399C432.835 130.081 432.27 130.77 431.714 131.466C409.513 158.725 398.856 200.186 396.487 234.841C401.038 235.059 405.681 235.095 410.204 235.621ZM636.162 731.918C625.71 733.852 619.785 739.243 613.969 747.711L613.618 748.226C621.52 747.438 633.784 745.058 640.236 750.573C644.796 754.47 646.478 760.902 646.804 766.683C647.191 773.568 646.006 781.406 641.266 786.699C636.828 791.656 630.146 793.538 623.686 793.717C619.269 793.839 612.738 792.664 609.071 795.566C608.532 796.694 608.212 797.432 608.559 798.699C608.94 800.088 609.897 801.496 610.704 802.676C615.933 807.797 621.933 810.2 629.264 810.179C637.917 810.154 645.707 806.923 651.752 800.741C660.356 791.942 664.582 779.19 664.295 767.005C664.055 756.836 661.063 745.847 653.51 738.613C649.102 734.392 643.077 731.611 636.888 731.872C636.646 731.882 636.404 731.902 636.162 731.918ZM363.722 842.536C366.301 843.064 369.389 843.108 371.633 841.511C373.573 840.13 374.391 837.743 374.655 835.467C376.321 821.065 367.389 804.49 358.53 793.831C350.883 784.63 340.628 775.409 328.161 774.299C326.899 774.187 325.775 774.187 324.526 774.373C319.502 776.757 315.511 779.236 311.971 783.66L312.29 790.367C313.477 790.728 314.655 791.118 315.822 791.537C316.99 791.957 318.147 792.405 319.292 792.881C320.437 793.358 321.57 793.863 322.691 794.395C323.811 794.928 324.917 795.488 326.01 796.076C327.103 796.664 328.18 797.278 329.243 797.919C330.305 798.561 331.35 799.228 332.379 799.92C333.408 800.614 334.42 801.332 335.413 802.074C336.407 802.818 337.382 803.585 338.337 804.376C339.292 805.168 340.227 805.982 341.142 806.82C342.057 807.658 342.951 808.518 343.824 809.4C344.696 810.282 345.546 811.186 346.373 812.11C347.201 813.034 348.005 813.979 348.786 814.943C349.567 815.907 350.323 816.89 351.055 817.892C351.787 818.894 352.494 819.913 353.175 820.949C353.856 821.986 354.512 823.039 355.141 824.108C355.77 825.178 356.373 826.262 356.948 827.361C359.512 832.287 361.413 837.499 363.722 842.536ZM477.81 238.901C490.13 239.5 502.696 240.632 515.013 240.594C532.208 241.703 549.631 241.622 566.763 243.308C572.24 209.22 578.62 172.843 556.7 142.735C553.873 138.853 544.53 127.709 539.632 127.306C539.121 127.264 539.021 127.276 538.607 127.292C514.406 138.74 498.948 156.991 489.943 182.095C483.39 200.367 480.173 219.699 477.81 238.901ZM182.719 222.357C179.75 224.047 177.031 225.758 174.53 228.117C179.248 232.229 184.459 236.48 188.145 241.572C190.72 245.129 192.558 249.292 195.424 252.613C195.994 252.162 196.583 251.741 197.087 251.215C200.18 247.419 203.496 244.005 207.326 240.943C204.79 233.939 201.774 227.898 194.653 224.556C191.051 222.865 186.677 222.073 182.719 222.357ZM194.019 212.935C207.502 217.083 212.127 222.868 218.753 234.626C220.583 234.127 222.404 233.624 224.212 233.052C224.641 207.568 219.052 168.269 200.584 149.295C197.365 145.988 192.647 142.817 187.867 142.76C186.964 142.749 186.065 142.83 185.167 142.911C182.833 144.045 181.055 145.181 180.092 147.704C176.378 157.446 186.637 181.037 189.481 191.378C191.436 198.484 192.826 205.668 194.019 212.935ZM769.825 684.462C771.446 693.988 774.819 702.216 782.884 708.065C789.079 712.557 796.516 714.269 804.069 712.967C819.294 710.344 821.31 699.775 823.767 698.822C824.205 698.651 824.707 698.792 825.177 698.776C827.336 702.273 820.701 709.544 827.372 711.489C831.928 712.817 840.747 709.572 844.459 707.048C849.513 703.611 851.292 696.524 854.512 694.482C855.737 694.812 856.148 695.126 856.788 696.255C857.328 697.208 857.749 698.262 858.19 699.265C869.371 695.848 877.227 690.849 882.822 680.26C890.856 665.056 889.815 645.297 884.722 629.337C881.207 618.317 875.525 608.927 866.493 601.627C857.542 613.22 845.581 620.23 830.983 622.07C817.148 623.814 801.023 622.474 789.734 613.467C788.251 612.301 786.861 611.032 785.566 609.66C774.56 616.364 764.939 625.803 761.836 638.726C760.152 645.735 760.629 653.622 764.44 659.876C767.376 664.694 771.637 667.429 776.472 670.015C775.736 664.964 774.158 658.587 776.407 653.768L777.442 653.05C779.161 653.551 779.969 654.466 780.8 656.037C783.284 660.73 788.536 688.327 787.583 693.059L786.898 693.712C785.199 693.465 784.362 692.488 783.399 691.172C781.044 687.956 779.668 684.218 778.111 680.581C775.781 680.322 773.047 679.652 770.833 680.555C769.753 681.998 769.923 682.695 769.825 684.462ZM793.808 603.788C801.218 611.098 810.176 613.759 820.463 613.667C832.686 613.557 845.711 609.164 854.351 600.283C858.522 595.996 861.57 590.69 861.306 584.537C861.093 579.597 858.776 575.363 855.068 572.147C853.468 570.76 851.642 569.779 849.728 568.905C849.727 568.925 849.727 568.945 849.726 568.964C849.546 574.677 849.368 580.297 844.829 584.433C837.709 590.922 826.034 593.317 816.68 592.678C812.756 592.41 807.974 591.551 805.237 588.465C802.602 585.494 802.785 579.243 802.476 575.51C796.961 579.67 790.815 585.331 789.979 592.589C789.475 596.96 791.2 600.415 793.808 603.788ZM457.877 238.016C460.175 197.539 469.441 155.403 500.992 127.131C503.661 124.74 511.231 120.531 512.716 118.054C511.714 117.831 511.503 117.833 510.554 118.031C487.978 120.424 467.288 130.384 452.876 148.156C433.372 172.208 424.694 205.487 422.483 235.974C424.158 236.072 425.852 236.121 427.522 236.284C437.406 236.468 448.114 236.456 457.877 238.016ZM327.674 926.825C328.928 921.259 326.724 915.435 323.749 910.763C318.934 903.203 311.52 896.578 304.728 890.778C289.167 893.561 273.573 893.006 258.74 887.157C263.594 902.901 277.129 914.37 291.319 921.86C300.235 926.565 313.398 931.618 323.575 928.611C325.052 928.174 326.357 927.615 327.674 926.825ZM313.913 801.711C314.619 805.831 317.621 817.133 315.348 820.558C314.263 820.612 314.581 820.796 313.842 820.204C307.915 815.46 302.571 786.967 299.659 778.704C288.226 746.266 263.389 718.252 226.432 720.861C226.017 720.891 225.603 720.944 225.192 721.005C214.246 722.606 203.396 727.593 195.811 735.781C205.934 732.332 218.335 735.171 227.678 739.801C254.696 753.193 271.082 782.557 282.838 809.088C287.787 820.259 292.202 832.12 299.405 842.08C310.578 857.531 327.722 867.311 339.287 882.345C341.758 885.558 350.675 903.028 351.754 903.609C360.379 892.372 361.459 877.549 359.703 863.959C357.077 843.635 346.551 822.653 330.017 810.146C324.988 806.342 319.765 803.939 313.913 801.711ZM158.004 234.788C149.015 238.474 143.083 244.519 139.38 253.493C133.447 267.873 135.684 286.255 141.653 300.252C146.898 312.552 155.558 322.109 168.078 327.147C184.866 333.902 201.991 330.62 218.099 323.691C235.55 316.184 249.757 303.823 256.858 285.894C260.763 276.033 263.049 263.732 258.462 253.698C256.193 248.734 252.304 245.162 247.146 243.358C237.76 240.075 225.537 242.988 216.942 247.4C211.326 250.283 206.836 254.326 203.416 259.641C201.205 264.285 198.659 269.263 200.632 274.485C201.61 277.074 203.682 278.844 206.19 279.899C212.424 282.524 220.171 281.12 226.249 278.579C230.272 276.897 233.74 273.622 237.889 272.318C238.496 273.097 238.454 272.75 238.39 273.645C238.127 277.329 233.837 282.147 231.027 284.248C223.61 289.794 214.711 289.472 205.936 289.631C204.97 295.413 206.028 306.268 203.629 310.664C203.071 310.945 202.778 311.326 202.151 311.029C200.252 310.126 198.147 306.26 197.55 304.245C196.081 299.291 199.632 288.631 197.103 284.948C186.767 289.892 186.698 297.634 171.722 292.076C164.695 289.467 155.689 282.673 152.792 275.611C151.505 272.474 150.898 267.274 151.988 263.976L152.682 263.479C155.25 264.77 157.449 270.572 159.107 273.042C163.56 279.674 172.202 286.813 180.662 284.242C183.255 283.454 185.344 281.855 186.604 279.434C189.415 274.032 187.953 266.062 185.991 260.517C182.691 251.194 175.22 240.491 165.972 236.296C163.384 235.122 160.838 234.522 158.004 234.788Z" fill="#232222"/>
<path d="M313.913 801.711C314.619 805.831 317.621 817.133 315.348 820.558C314.263 820.612 314.581 820.796 313.842 820.204C307.915 815.46 302.571 786.967 299.659 778.704C288.226 746.266 263.389 718.252 226.432 720.861C226.017 720.891 225.603 720.944 225.192 721.005C214.246 722.606 203.396 727.593 195.811 735.781C205.934 732.332 218.335 735.171 227.678 739.801C254.696 753.193 271.082 782.557 282.838 809.088C287.787 820.259 292.202 832.12 299.405 842.08C310.578 857.531 327.722 867.311 339.287 882.345C341.758 885.558 350.675 903.028 351.754 903.609C360.379 892.372 361.459 877.549 359.703 863.959C357.077 843.635 346.551 822.653 330.017 810.146C324.988 806.342 319.765 803.939 313.913 801.711Z" fill="white"/>
<path d="M610.743 825.918C623.653 825.862 654.22 826.904 663.364 835.613C664.367 836.568 665.153 837.76 665.15 839.192L665.15 839.366C665.151 840.373 665.152 840.503 664.378 841.341C657.354 842.275 645.987 837.614 638.97 835.874C634.984 834.885 630.92 834.236 626.95 833.175L626.538 833.387C635.47 839.322 642.25 838.39 651.42 847.892C652.962 849.49 654.712 851.432 655.289 853.628C655.512 854.482 655.419 854.245 654.977 855.137C653.424 855.56 652.061 854.931 650.708 854.185C647.82 852.593 645.251 850.424 642.332 848.912C625.945 840.423 601.93 835.54 583.938 840.445C582.787 840.758 581.658 841.133 580.549 841.57C571.924 845.04 564.331 850.059 560.411 858.844C557.296 865.826 556.887 874.711 559.829 881.788C563.392 890.361 571.458 895.807 579.8 899.11C600.684 907.379 634.189 907.233 654.835 898.268C672.435 890.625 683.707 874.185 690.458 856.79C700.517 830.874 709.209 779.103 697.859 753.539C694.11 745.093 687.596 736.718 678.712 733.362C674.581 731.802 670.547 731.35 666.186 731.963L662.376 732.602L661.832 733.401C662.747 737.916 666.584 741.945 668.317 746.288C675.315 763.819 672.893 785.316 662.363 800.999C656.28 810.06 647.354 816.491 636.566 818.572C627.921 820.24 620.381 818.736 612.419 815.241C611.671 818.79 611.175 822.319 610.743 825.918Z" fill="white"/>
<path d="M363.722 842.536C366.301 843.064 369.389 843.108 371.633 841.511C373.573 840.13 374.391 837.743 374.655 835.467C376.321 821.065 367.389 804.49 358.53 793.831C350.883 784.63 340.628 775.409 328.161 774.299C326.899 774.187 325.775 774.187 324.526 774.373C319.502 776.757 315.511 779.236 311.971 783.66L312.29 790.367C313.477 790.728 314.655 791.118 315.822 791.537C316.99 791.957 318.147 792.405 319.292 792.881C320.437 793.358 321.57 793.863 322.691 794.395C323.811 794.928 324.917 795.488 326.01 796.076C327.103 796.664 328.18 797.278 329.243 797.919C330.305 798.561 331.35 799.228 332.379 799.92C333.408 800.614 334.42 801.332 335.413 802.074C336.407 802.818 337.382 803.585 338.337 804.376C339.292 805.168 340.227 805.982 341.142 806.82C342.057 807.658 342.951 808.518 343.824 809.4C344.696 810.282 345.546 811.186 346.373 812.11C347.201 813.034 348.005 813.979 348.786 814.943C349.567 815.907 350.323 816.89 351.055 817.892C351.787 818.894 352.494 819.913 353.175 820.949C353.856 821.986 354.512 823.039 355.141 824.108C355.77 825.178 356.373 826.262 356.948 827.361C359.512 832.287 361.413 837.499 363.722 842.536Z" fill="white"/>
<path d="M636.162 731.918C625.71 733.852 619.785 739.243 613.969 747.711L613.618 748.226C621.52 747.438 633.784 745.058 640.236 750.573C644.796 754.47 646.478 760.902 646.804 766.683C647.191 773.568 646.006 781.406 641.266 786.699C636.828 791.656 630.146 793.538 623.686 793.717C619.269 793.839 612.738 792.664 609.071 795.566C608.532 796.694 608.212 797.432 608.559 798.699C608.94 800.088 609.897 801.496 610.704 802.676C615.933 807.797 621.933 810.2 629.264 810.179C637.917 810.154 645.707 806.923 651.752 800.741C660.356 791.942 664.582 779.19 664.295 767.005C664.055 756.836 661.063 745.847 653.51 738.613C649.102 734.392 643.077 731.611 636.888 731.872C636.646 731.882 636.404 731.902 636.162 731.918Z" fill="white"/>
<path d="M769.825 684.462C771.446 693.988 774.819 702.216 782.884 708.065C789.079 712.557 796.516 714.269 804.069 712.967C819.294 710.344 821.31 699.775 823.767 698.822C824.205 698.651 824.707 698.792 825.177 698.776C827.336 702.273 820.701 709.544 827.372 711.489C831.928 712.817 840.747 709.572 844.459 707.048C849.513 703.611 851.292 696.524 854.512 694.482C855.737 694.812 856.148 695.126 856.788 696.255C857.328 697.208 857.749 698.262 858.19 699.265C869.371 695.848 877.227 690.849 882.822 680.26C890.856 665.056 889.815 645.297 884.722 629.337C881.207 618.317 875.525 608.927 866.493 601.627C857.542 613.22 845.581 620.23 830.983 622.07C817.148 623.814 801.023 622.474 789.734 613.467C788.251 612.301 786.861 611.032 785.566 609.66C774.56 616.364 764.939 625.803 761.836 638.726C760.152 645.735 760.629 653.622 764.44 659.876C767.376 664.694 771.637 667.429 776.472 670.015C775.736 664.964 774.158 658.587 776.407 653.768L777.442 653.05C779.161 653.551 779.969 654.466 780.8 656.037C783.284 660.73 788.536 688.327 787.583 693.059L786.898 693.712C785.199 693.465 784.362 692.488 783.399 691.172C781.044 687.956 779.668 684.218 778.111 680.581C775.781 680.322 773.047 679.652 770.833 680.555C769.753 681.998 769.923 682.695 769.825 684.462Z" fill="white"/>
<path d="M793.808 603.788C801.218 611.098 810.176 613.759 820.463 613.667C832.686 613.557 845.711 609.164 854.351 600.283C858.522 595.996 861.57 590.69 861.306 584.537C861.093 579.597 858.776 575.363 855.068 572.147C853.468 570.76 851.642 569.779 849.728 568.905L849.726 568.964C849.546 574.677 849.368 580.297 844.829 584.433C837.709 590.922 826.034 593.317 816.68 592.678C812.756 592.41 807.974 591.551 805.237 588.465C802.602 585.494 802.785 579.243 802.476 575.51C796.961 579.67 790.815 585.331 789.979 592.589C789.475 596.96 791.2 600.415 793.808 603.788Z" fill="white"/>
<path d="M158.004 234.788C149.015 238.474 143.083 244.519 139.38 253.493C133.447 267.873 135.684 286.255 141.653 300.252C146.898 312.552 155.558 322.109 168.078 327.147C184.866 333.902 201.991 330.62 218.099 323.691C235.55 316.184 249.757 303.823 256.858 285.894C260.763 276.033 263.049 263.732 258.462 253.698C256.193 248.734 252.304 245.162 247.146 243.358C237.76 240.075 225.537 242.988 216.942 247.4C211.326 250.283 206.836 254.326 203.416 259.641C201.205 264.285 198.659 269.263 200.632 274.485C201.61 277.074 203.682 278.844 206.19 279.899C212.424 282.524 220.171 281.12 226.249 278.579C230.272 276.897 233.74 273.622 237.889 272.318C238.496 273.097 238.454 272.75 238.39 273.645C238.127 277.329 233.837 282.147 231.027 284.248C223.61 289.794 214.711 289.472 205.936 289.631C204.97 295.413 206.028 306.268 203.629 310.664C203.071 310.945 202.778 311.326 202.151 311.029C200.252 310.126 198.147 306.26 197.55 304.245C196.081 299.291 199.632 288.631 197.103 284.948C186.767 289.892 186.698 297.634 171.722 292.076C164.695 289.467 155.689 282.673 152.792 275.611C151.505 272.474 150.898 267.274 151.988 263.976L152.682 263.479C155.25 264.77 157.449 270.572 159.107 273.042C163.56 279.674 172.202 286.813 180.662 284.242C183.255 283.454 185.344 281.855 186.604 279.434C189.415 274.032 187.953 266.062 185.991 260.517C182.691 251.194 175.22 240.491 165.972 236.296C163.384 235.122 160.838 234.522 158.004 234.788Z" fill="white"/>
<path d="M159.794 335.11C159.72 342.254 160.628 347.455 165.734 352.845C177.154 360.54 190.205 361.955 203.548 359.39C214.692 357.249 227.874 351.637 234.284 341.738C236.089 338.95 237.356 335.836 236.523 332.494C236.062 330.646 235.067 328.463 233.562 327.264C213.277 337.701 191.582 345.992 168.692 338.67C165.638 337.693 162.715 336.423 159.794 335.11Z" fill="white"/>
<path d="M182.719 222.357C179.75 224.047 177.031 225.758 174.53 228.117C179.248 232.229 184.459 236.48 188.145 241.572C190.72 245.129 192.558 249.292 195.424 252.613C195.994 252.162 196.583 251.741 197.087 251.215C200.18 247.419 203.496 244.005 207.326 240.943C204.79 233.939 201.774 227.898 194.653 224.556C191.051 222.865 186.677 222.073 182.719 222.357Z" fill="white"/>
<path d="M194.019 212.935C207.502 217.083 212.127 222.868 218.753 234.626C220.583 234.127 222.404 233.624 224.212 233.052C224.641 207.568 219.052 168.269 200.584 149.295C197.365 145.988 192.647 142.817 187.867 142.76C186.964 142.749 186.065 142.83 185.167 142.911C182.833 144.045 181.055 145.181 180.092 147.704C176.378 157.446 186.637 181.037 189.481 191.378C191.436 198.484 192.826 205.668 194.019 212.935Z" fill="white"/>
<path d="M410.204 235.621C413.736 195.833 425.695 151.913 457.531 125.414C458.4 124.698 459.284 123.999 460.181 123.318C461.078 122.637 461.988 121.974 462.911 121.329C463.835 120.684 464.771 120.057 465.719 119.449C466.667 118.841 467.627 118.252 468.599 117.683C469.57 117.113 470.553 116.563 471.546 116.032C472.54 115.501 473.544 114.99 474.557 114.499C475.571 114.008 476.594 113.537 477.626 113.087C478.659 112.636 479.7 112.207 480.749 111.797C481.798 111.388 482.856 111 483.921 110.633C484.986 110.266 486.057 109.92 487.136 109.595C488.215 109.27 489.299 108.967 490.39 108.686C491.48 108.404 492.576 108.144 493.677 107.906C494.778 107.668 495.883 107.451 496.992 107.257C498.102 107.063 499.215 106.891 500.331 106.74C501.448 106.59 502.567 106.462 503.688 106.356C504.809 106.251 505.932 106.167 507.057 106.106C525.877 105.665 544.368 112.186 558.091 125.217C577.412 143.562 583.474 169.664 584.038 195.427C584.392 211.593 581.637 228.029 578.971 243.928L578.912 244.277C583.93 244.474 589.008 244.514 594.011 244.917C595.069 235.291 597.004 225.788 597.891 216.144C600.868 183.75 596.35 149.241 575.357 123.137C574.92 122.595 574.477 122.058 574.026 121.527C573.576 120.996 573.119 120.47 572.656 119.95C572.193 119.431 571.723 118.917 571.247 118.408C570.771 117.9 570.289 117.398 569.8 116.902C569.311 116.405 568.817 115.915 568.317 115.431C567.816 114.947 567.31 114.469 566.797 113.998C566.284 113.526 565.766 113.061 565.242 112.603C564.719 112.144 564.189 111.692 563.654 111.246C563.119 110.801 562.578 110.362 562.032 109.93C561.486 109.498 560.935 109.072 560.378 108.654C559.821 108.235 559.26 107.824 558.693 107.419C558.126 107.015 557.555 106.617 556.978 106.227C556.401 105.836 555.82 105.453 555.234 105.077C554.648 104.701 554.057 104.333 553.462 103.971C552.867 103.61 552.267 103.256 551.663 102.909C551.059 102.563 550.451 102.224 549.839 101.892C549.226 101.561 548.61 101.237 547.989 100.921C547.369 100.605 546.745 100.296 546.117 99.9958C545.489 99.6951 544.857 99.4022 544.222 99.1171C543.587 98.832 542.948 98.5549 542.305 98.2857C541.663 98.0164 541.018 97.7552 540.369 97.5019C539.72 97.2487 539.069 97.0035 538.414 96.7664C537.759 96.5293 537.102 96.3004 536.441 96.0795C535.781 95.8587 535.118 95.6461 534.452 95.4418C533.787 95.2374 533.119 95.0413 532.448 94.8534C531.777 94.6656 531.105 94.4861 530.43 94.3149C529.755 94.1438 529.078 93.981 528.399 93.8266C527.72 93.6722 527.039 93.5262 526.356 93.3887C525.673 93.2512 524.989 93.1221 524.304 93.0015C523.618 92.881 522.931 92.7689 522.242 92.6653C521.553 92.5618 520.864 92.4668 520.173 92.3803C519.482 92.2938 518.79 92.2159 518.097 92.1466C513.842 91.7142 509.264 91.487 505.014 92.0324C504.127 92.1129 503.24 92.2045 502.355 92.3074C501.47 92.4102 500.587 92.5242 499.705 92.6493C498.822 92.7744 497.942 92.9105 497.063 93.0578C496.184 93.2051 495.308 93.3634 494.433 93.5328C493.558 93.7021 492.686 93.8825 491.816 94.0739C490.945 94.2652 490.078 94.4675 489.213 94.6807C488.348 94.8939 487.485 95.118 486.626 95.3529C485.767 95.5878 484.91 95.8335 484.057 96.09C483.204 96.3465 482.354 96.6138 481.507 96.8917C480.66 97.1696 479.817 97.4582 478.978 97.7573C478.139 98.0564 477.303 98.3661 476.472 98.6863C475.641 99.0065 474.813 99.3371 473.99 99.6782C473.167 100.019 472.348 100.371 471.534 100.732C470.719 101.094 469.91 101.466 469.105 101.848C468.3 102.23 467.5 102.622 466.705 103.024C465.91 103.426 465.121 103.839 464.336 104.261C463.551 104.683 462.772 105.115 461.998 105.557C461.224 105.998 460.456 106.45 459.694 106.911C458.931 107.372 458.175 107.843 457.424 108.323C456.673 108.803 455.929 109.293 455.191 109.791C454.453 110.29 453.721 110.798 452.996 111.316C452.271 111.833 451.552 112.36 450.839 112.895C450.127 113.431 449.422 113.975 448.723 114.528C448.025 115.081 447.334 115.643 446.649 116.214C445.965 116.785 445.288 117.364 444.618 117.951C443.949 118.539 443.287 119.135 442.632 119.74C441.977 120.344 441.33 120.957 440.691 121.577C440.052 122.198 439.42 122.827 438.797 123.463C438.174 124.1 437.558 124.744 436.951 125.396C436.344 126.048 435.746 126.708 435.155 127.375C434.564 128.042 433.982 128.717 433.409 129.399C432.835 130.081 432.27 130.77 431.714 131.466C409.513 158.725 398.856 200.186 396.487 234.841C401.038 235.059 405.681 235.095 410.204 235.621Z" fill="white"/>
<path d="M252.739 647.927L627.299 690.445C629.025 690.597 630.722 690.823 632.434 691.092C645.269 595.432 657.439 499.686 668.944 403.856L680.123 310.361C681.843 295.581 682.919 276.447 685.922 262.41C671.248 260.891 656.34 260.452 641.601 259.628C613.963 258.018 586.314 256.62 558.655 255.434L418.68 247.986L351.123 244.357C338.886 243.802 324.498 244.471 312.635 242.374L268.535 541.345C263.167 576.835 258.882 612.563 252.739 647.927Z" fill="white"/>
<path d="M728.797 673.679C730.523 663.373 730.888 652.844 731.484 642.423C732.21 629.001 733.021 615.585 733.917 602.173L738.29 539.828C739.017 529.545 740.126 519.143 740.418 508.843C734.121 507.755 727.886 507.037 721.516 506.544C717.629 506.243 712.873 506.444 709.134 505.461C706.616 522.607 705.453 540.093 703.635 557.344C701.113 581.271 697.888 606.808 696.958 630.75C705.235 644.319 717.497 662.547 728.797 673.679Z" fill="#D6D0FF"/>
<path d="M644.354 690.083C671.25 687.12 699.242 681.116 726.044 676.582C719.285 670.247 712.509 663.975 706.487 656.916C701.711 651.319 697.516 644.848 692.332 639.657C687.075 644.923 681.967 650.331 677.009 655.88C672.26 661.218 667.508 667.695 661.761 671.928C660.22 673.063 658.338 673.777 656.578 674.504C656.671 674.329 656.761 674.152 656.857 673.978C662.266 664.104 672.034 652.88 679.244 643.982C682.216 640.314 684.987 636.499 686.801 632.11C692.333 618.724 691.467 595.736 693.779 580.753L697.822 543.592C699.247 530.465 700.525 517.256 703.029 504.279C697.138 499.647 693.813 494.642 692.92 487.025C692.182 480.73 692.787 473.844 696.786 468.668C700.52 463.835 706.26 461.801 712.152 461.191C722.181 460.151 733.474 461.846 743.332 463.869L755.791 282.021C747.349 281.609 738.771 281.322 730.373 280.403L719.176 392.615C717.314 410.158 716.356 428.322 713.273 445.672L713.248 445.815C712.684 448.987 712.094 452.303 710.164 454.945L709.428 454.902C708.667 453.43 708.246 452.241 708.103 450.58C707.089 438.823 708.769 426.213 709.303 414.436C710.805 381.29 714.309 348.283 716.849 315.207C717.791 302.942 719.105 290.558 719.383 278.262C711.489 275.557 703.307 272.399 696.424 267.586C693.102 303.485 688.207 339.396 683.819 375.186L657.974 582.332L648.774 652.483C647.141 665.005 645.115 677.463 644.354 690.083Z" fill="#D6D0FF"/>
<path d="M706.462 752.085C715.3 789.575 708.184 848.508 687.839 881.336C678.311 896.711 663.566 906.726 645.991 910.77C623.584 915.926 585.378 914.551 565.735 902.02C561.906 899.577 558.675 896.602 555.538 893.341C555.102 898.589 554.889 903.973 558.643 908.186C558.846 908.415 559.058 908.636 559.265 908.861C577.431 924.282 608.642 925.802 631.398 923.873C653.116 922.033 672.193 914.917 686.49 897.913C709.724 870.279 720.947 815.323 717.747 779.833C716.95 770.984 714.559 758.382 707.068 752.536C706.869 752.382 706.664 752.235 706.462 752.085Z" fill="white"/>
<path d="M327.674 926.825C328.928 921.259 326.724 915.435 323.749 910.763C318.934 903.203 311.52 896.578 304.728 890.778C289.167 893.561 273.573 893.006 258.74 887.157C263.594 902.901 277.129 914.37 291.319 921.86C300.235 926.565 313.398 931.618 323.575 928.611C325.052 928.174 326.357 927.615 327.674 926.825Z" fill="#232222"/>
<path d="M313.221 886.447C319.475 892.324 326.497 897.957 331.966 904.579C335.447 909.138 337.347 913.689 338.717 919.251C341.659 915.206 343.69 911.637 342.973 906.399C340.52 888.487 315.26 873.555 303.181 861.556C286.841 845.326 279.297 825.352 269.692 804.969C260.551 785.571 247.894 765.003 230.309 752.297C222.236 746.465 213.078 742.97 203.005 744.02C196.299 744.578 190.479 746.17 185.968 751.577C179.154 759.744 178.27 772.261 179.413 782.387C181.324 799.322 189.22 817.757 199.865 831.023C207.311 840.302 220.952 852.163 230.406 859.647C249.419 874.696 272.265 882.662 296.615 879.685C300.336 879.23 308.918 876.871 312.018 879.454C313.28 880.506 313.127 884.835 313.221 886.447Z" fill="#5A5292"/>
<ellipse cx="398.566" cy="385.397" rx="32" ry="55.5" transform="rotate(10.4856 398.566 385.397)" fill="white"/>
<ellipse cx="531.566" cy="397.397" rx="32" ry="55.5" transform="rotate(10.4856 531.566 397.397)" fill="white"/>
<path d="M537.823 464.533C550.845 464.372 558.357 473.987 569.048 479.394C573.335 481.562 578.407 482.081 582.46 484.668C583.023 485.767 582.935 485.92 582.76 487.161C582.085 488.08 581.532 488.686 580.517 489.237C572.46 493.608 562.854 490.262 554.742 487.841C551.983 493.416 549.861 499.483 547.434 505.225C544.237 512.889 540.444 520.247 536.057 527.298C521.087 551.494 498.61 579.492 469.55 586.115C454.722 589.494 437.173 586.677 424.299 578.594C405.774 566.962 397.487 544.997 392.801 524.611C392.222 519.285 391.156 513.838 389.777 508.665C385.76 505.224 380.678 502.673 376.223 499.81C370.266 495.982 364.914 491.795 359.639 487.097C358.648 487.463 357.652 487.814 356.651 488.151C350.781 490.108 343.804 490.394 338.168 487.552C337.401 486.543 337.288 486.604 337.427 485.364C340.747 480.133 348.09 478.834 353.18 475.981C357.324 473.66 360.054 468.843 364.472 466.541C366.08 465.703 367.168 465.516 368.929 466.056C370.026 466.89 370.821 467.855 371.162 469.219C371.986 472.508 369.092 476.559 367.589 479.342C387.206 497.657 420.967 506.533 447.318 507.066C476.015 507.647 522.472 497.396 543.513 477.292C540.648 475.721 536.458 473.801 534.824 470.856C534.255 469.829 534.059 468.647 534.522 467.534C535.136 466.057 536.509 465.284 537.823 464.533ZM460.583 543.893C451.256 542.483 442.466 544.808 434.912 550.462C430.617 553.677 427.523 557.517 424.911 562.192C427.259 564.634 429.566 567.122 432.449 568.95C433.204 569.353 433.968 569.736 434.742 570.101C435.516 570.466 436.299 570.812 437.09 571.138C437.881 571.463 438.68 571.769 439.487 572.055C440.293 572.342 441.106 572.608 441.926 572.853C442.745 573.098 443.571 573.323 444.402 573.528C445.233 573.733 446.068 573.917 446.908 574.08C447.748 574.243 448.592 574.385 449.439 574.506C450.286 574.627 451.135 574.726 451.987 574.805C452.84 574.884 453.693 574.942 454.548 574.978C455.403 575.014 456.258 575.029 457.114 575.023C457.969 575.016 458.824 574.989 459.679 574.94C460.533 574.891 461.385 574.821 462.236 574.73C463.087 574.639 463.935 574.526 464.78 574.393C465.625 574.26 466.467 574.105 467.304 573.93C468.142 573.755 468.975 573.559 469.802 573.342C470.63 573.125 471.452 572.887 472.268 572.63C488.338 567.69 502.739 555.956 511.683 541.812C510.926 541.407 510.156 541.028 509.374 540.674C508.592 540.319 507.799 539.991 506.995 539.689C506.192 539.387 505.379 539.111 504.557 538.862C503.736 538.613 502.907 538.392 502.07 538.197C501.234 538.003 500.392 537.836 499.545 537.697C498.698 537.558 497.847 537.446 496.992 537.363C496.138 537.279 495.282 537.223 494.423 537.196C493.565 537.169 492.707 537.17 491.849 537.199C485.529 537.805 478.743 539.596 473.228 542.828C468.703 545.48 459.784 557.138 454.876 556.422C454.343 554.695 454.948 553.484 455.777 551.927C457.247 549.164 459.074 546.625 460.583 543.893Z" fill="#232222"/>
<path d="M460.583 543.893C451.256 542.483 442.466 544.808 434.912 550.462C430.617 553.677 427.523 557.517 424.911 562.192C427.259 564.634 429.566 567.122 432.449 568.95C433.204 569.353 433.968 569.736 434.742 570.101C435.516 570.466 436.299 570.812 437.09 571.138C437.881 571.463 438.68 571.769 439.487 572.055C440.293 572.342 441.106 572.608 441.926 572.853C442.745 573.098 443.571 573.323 444.402 573.528C445.233 573.733 446.068 573.917 446.908 574.08C447.748 574.243 448.592 574.385 449.439 574.506C450.286 574.627 451.135 574.726 451.987 574.805C452.84 574.884 453.693 574.942 454.548 574.978C455.403 575.014 456.258 575.029 457.114 575.023C457.969 575.016 458.824 574.989 459.679 574.94C460.533 574.891 461.385 574.821 462.236 574.73C463.087 574.639 463.935 574.526 464.78 574.393C465.625 574.26 466.467 574.105 467.304 573.93C468.142 573.755 468.975 573.559 469.802 573.342C470.63 573.125 471.452 572.887 472.268 572.63C488.338 567.69 502.739 555.956 511.683 541.812C510.926 541.407 510.156 541.028 509.374 540.674C508.592 540.319 507.799 539.991 506.995 539.689C506.192 539.387 505.379 539.111 504.557 538.862C503.736 538.613 502.907 538.392 502.07 538.197C501.234 538.003 500.392 537.836 499.545 537.697C498.698 537.558 497.847 537.446 496.992 537.363C496.138 537.279 495.282 537.223 494.423 537.196C493.565 537.169 492.707 537.17 491.849 537.199C485.529 537.805 478.743 539.596 473.228 542.828C468.703 545.48 459.784 557.138 454.876 556.422C454.343 554.695 454.948 553.484 455.777 551.927C457.247 549.164 459.074 546.625 460.583 543.893Z" fill="#FF9A9A"/>
<path d="M400.485 329.188C405.028 329.021 409.27 329.155 413.56 330.93C420.148 333.655 424.595 339.591 427.261 346.003C436.602 368.461 429.676 402.217 420.828 423.846C430.6 422.111 441.666 421.15 451.194 424.629C452.65 425.161 453.782 426.076 454.319 427.566C454.773 428.829 454.663 430.181 454.071 431.38C453.308 432.923 451.86 433.962 450.205 434.339C447.411 434.975 444.046 434.453 441.201 434.296C432.423 433.812 422.954 433.533 414.701 437.088C410.741 438.793 407.286 441.438 405.746 445.589C404.456 449.067 404.261 453.806 405.855 457.221C410.563 467.309 429.292 470.409 439.173 470.407C443.639 470.406 450.78 468.551 454.903 470.155C455.906 470.545 455.957 470.743 456.375 471.664C456.149 472.347 456.165 472.421 455.706 473.111C453.192 476.886 445.949 479.456 441.752 480.289C429.148 482.789 414.364 479.333 403.763 472.231C398.243 468.532 393.478 463.502 392.278 456.73C390.617 447.355 396.067 441.263 401.167 434.276L401.179 433.413C395.647 429.983 391.439 425.569 389.75 419.105C388.55 414.514 388.817 409.332 391.4 405.245C394.712 400.003 400.058 399.228 405.659 398.113C402.846 396.09 399.113 394.319 396.816 391.74C395.274 390.008 394.846 387.534 395.004 385.278C395.329 380.607 398.474 376.154 402.028 373.3C405.088 370.844 408.965 369.213 412.942 369.742C417.29 370.32 419.582 372.655 422.103 376.036C422.108 373.039 421.955 370.049 421.644 367.068C420.823 358.527 418.556 347.435 411.383 341.838C411.076 341.596 410.757 341.37 410.426 341.16C410.095 340.951 409.755 340.758 409.406 340.582C409.056 340.407 408.698 340.249 408.332 340.11C407.967 339.971 407.595 339.85 407.217 339.748C406.839 339.646 406.457 339.563 406.071 339.5C405.685 339.437 405.297 339.393 404.906 339.368C404.515 339.344 404.124 339.34 403.733 339.355C403.342 339.37 402.952 339.404 402.565 339.459C396.811 340.224 392.236 344.589 388.756 348.941C376.237 364.598 370.856 387.917 372.557 407.686C373.025 413.122 374.666 418.477 375.166 423.926C375.315 425.544 375.354 426.821 374.308 428.098L373.088 427.749C369.915 424.858 368.41 421.531 367.133 417.51C360.708 397.291 366.494 370.462 376.183 352.172C381.648 341.856 388.978 332.749 400.485 329.188Z" fill="#232222"/>
<path d="M538.699 337.208C543.011 337.342 546.946 337.642 550.848 339.722C574.114 352.121 565.677 396.602 559.677 417.028C558.579 420.767 552.305 432.484 553.19 435.31C554.549 435.782 555.88 436.095 557.289 436.382L557.769 437.321C556.535 439.692 554.973 440.627 552.496 441.409C545.622 443.581 536.991 445.236 530.356 441.552C526.277 439.288 523.383 435.242 522.32 430.725C521.217 426.039 521.811 420.626 524.42 416.523C527.806 411.199 533.15 410.046 538.859 408.645C535.623 405.816 530.389 403.314 529.199 398.93C528.225 395.345 529.703 391.607 531.509 388.545C534.778 383.003 538.605 379.893 544.759 378.318C550.773 379.872 553.233 382.497 556.526 387.578C556.516 383.885 556.465 380.192 556.373 376.499C556.09 367.863 555.004 357.896 548.495 351.486C546.087 349.116 543.044 347.817 539.641 348.038C532.119 348.527 525.573 354.615 521.006 360.155C508.649 375.143 503.398 398.951 505.029 418.022C505.529 423.864 507.805 429.426 508.241 435.242C508.38 437.096 508.275 438.317 507.035 439.734C505.971 439.713 505.805 439.663 504.971 439.06C500.325 435.701 498.509 428.507 497.753 423.091C494.543 400.126 500.308 371.361 514.451 352.685C520.681 344.459 528.291 338.6 538.699 337.208Z" fill="#232222"/>
<path d="M547.52 281.648C550.578 281.335 553.746 281.292 556.766 281.916C566.954 284.024 575.176 291.711 580.646 300.24C583.941 305.376 588.406 314.908 586.319 321.011C585.873 322.316 585.657 322.49 584.523 323.091C579.29 322.667 574.345 312.732 571.314 308.808C569.829 306.885 568.069 305.229 566.312 303.558C542.666 284.852 528.083 309.092 519.442 307.499L518.671 306.343C518.342 302.515 520.275 299.058 522.428 296.011C528.396 287.565 537.616 283.429 547.52 281.648Z" fill="#232222"/>
<path d="M399.771 273.555C401.337 273.325 402.911 273.269 404.493 273.297C412.939 273.445 422.701 276.507 428.68 282.715C432.671 286.859 436.787 293.487 436.203 299.477C436.065 300.891 435.656 301.43 434.634 302.362C433.501 302.705 433.196 303.006 432.111 302.399C430.144 301.299 428.223 299.194 426.472 297.741C420.338 292.652 414.473 289.553 406.62 288.055C404.803 287.894 403.001 287.93 401.183 288.04C387.164 288.886 385.807 294.523 377.867 303.119C376.804 304.269 375.671 305.348 374.038 305.419C373.364 304.831 373.249 304.897 373.019 303.956C371.87 299.26 374.356 292.854 376.83 288.837C382.196 280.126 390.12 276.012 399.771 273.555Z" fill="#232222"/>
<path d="M406.083 587.537C410.245 588.638 413.757 592.053 417.241 594.475C425.462 600.191 436.123 603.752 446.087 604.517C453.23 605.066 461.407 604.597 468.424 603.007C473.21 601.923 480.849 596.984 485.541 598.296C486.317 598.514 486.306 598.833 486.69 599.468C486.274 602.083 484.445 603.703 482.586 605.425C478.108 608.965 473.223 611.756 467.792 613.555C454.522 617.952 437.886 617.033 425.384 610.677C418.388 607.121 408.334 599.976 405.987 592.131C405.489 590.464 405.267 589.137 406.083 587.537Z" fill="#232222"/>
<path d="M821.563 636.588C821.774 636.622 821.988 636.644 822.197 636.689C824.243 637.132 825.557 638.725 826.525 640.488C831.043 648.719 829.184 662.597 826.558 671.205L825.661 672.698L824.593 672.267L825.285 672.945C824.115 673.088 824.303 672.971 823.408 672.338C820.255 666.518 821.382 644.02 821.563 636.588Z" fill="#232222"/>
<path d="M842.429 634.085C844.311 634.773 845.422 635.675 846.508 637.329C851.683 645.214 850.42 658.098 848.644 666.883C848.005 666.947 847.358 666.83 846.72 666.768C845.939 666.188 845.526 665.776 845.093 664.877C842.788 660.098 840.513 638.816 842.429 634.085Z" fill="#232222"/>
<path d="M860.05 629.233C863.13 631.327 865.149 634.052 866.649 637.457C869.249 643.356 870.044 649.895 867.69 656C867.084 656.223 866.467 656.266 865.83 656.355C865.406 656.115 865.189 656.033 864.85 655.607C861.798 651.768 860.08 634.557 860.05 629.233Z" fill="#232222"/>
</svg>
