<svg xmlns="http://www.w3.org/2000/svg" width="20" height="20" viewBox="0 0 20 20" version="1.1" id="Check--Streamline-Flex.svg">
	<path d="M17.84086 0.98148C17.69932 1.00662 17.53606 1.08214 17.421400000000002 1.1755200000000001C16.9375 1.56958 15.125440000000001 3.3362200000000004 14.38068 4.14C12.3368 6.34584 10.8545 8.497720000000001 9.51054 11.21C8.85176 12.5395 8.265080000000001 13.90614 7.623780000000001 15.605139999999999L7.406680000000001 16.18028 5.01078 13.70934C3.69302 12.35032 2.5741199999999997 11.210360000000001 2.52432 11.1761C2.0869 10.87514 1.4636600000000002 10.989400000000002 1.15074 11.427919999999999C0.9314600000000001 11.73522 0.9025400000000001 12.11208 1.0718 12.456679999999999C1.136 12.587380000000001 1.20854 12.67008 1.7384000000000002 13.216679999999998C2.06542 13.554000000000002 3.4006000000000003 14.932500000000001 4.70546 16.28C6.01034 17.6275 7.13902 18.77714 7.21366 18.83474C7.64616 19.168599999999998 8.26946 19.08096 8.602580000000001 18.639480000000002C8.70414 18.50488 8.716380000000001 18.47656 8.909260000000002 17.93C9.75652 15.52916 10.58266 13.53384 11.401800000000001 11.91C12.6176 9.49982 13.88974 7.65334 15.705820000000001 5.662780000000001C16.13358 5.1939400000000004 17.5379 3.78982 18.080000000000002 3.2889600000000003C18.78902 2.6338600000000003 18.85492 2.56584 18.93164 2.41C19.24902 1.7651599999999998 18.8125 1.0095 18.1 0.9703400000000001C18.017500000000002 0.9658 17.90088 0.9708199999999999 17.84086 0.98148" stroke="none" fill="currentColor" fill-rule="evenodd"></path>
</svg>