<svg xmlns="http://www.w3.org/2000/svg" fill="none" viewBox="0 0 24 24"><path fill="currentColor" fill-rule="evenodd" d="M20 7C21.6569 7 23 5.65685 23 4C23 2.34315 21.6569 1 20 1C18.3431 1 17 2.34315 17 4C17 5.65685 18.3431 7 20 7ZM12 15C13.6569 15 15 13.6569 15 12C15 10.3431 13.6569 9 12 9C10.3431 9 9 10.3431 9 12C9 13.6569 10.3431 15 12 15ZM7 20C7 21.6569 5.65685 23 4 23C2.34315 23 1 21.6569 1 20C1 18.3431 2.34315 17 4 17C5.65685 17 7 18.3431 7 20ZM20 8.5C20.3437 8.5 20.6784 8.46147 21 8.38849V23H19V8.38849C19.3216 8.46147 19.6563 8.5 20 8.5ZM12 16.5C12.3437 16.5 12.6784 16.4615 13 16.3885V23H11V16.3885C11.3216 16.4615 11.6563 16.5 12 16.5ZM12 7.5C12.3437 7.5 12.6784 7.53853 13 7.61151V1H11V7.61151C11.3216 7.53853 11.6563 7.5 12 7.5ZM4 15.5C4.34369 15.5 4.67839 15.5385 5 15.6115L5 1H3V15.6115C3.32161 15.5385 3.65631 15.5 4 15.5Z" clip-rule="evenodd"></path></svg>