<svg xmlns="http://www.w3.org/2000/svg" viewBox="0 0 24 24" id="Award-Trophy-Cup-1--Streamline-Nova"><desc>Award Trophy Cup 1 Streamline Icon: https://streamlinehq.com</desc><path d="M7 20.5h10v2H7zm14 -17h-3.278A1.993 1.993 0 0 0 16 2.5H8a1.993 1.993 0 0 0 -1.722 1H3a1 1 0 0 0 -1 1v4a1 1 0 0 0 0.375 0.781L7.3 13.224A6 6 0 0 0 11 15.41v1.09H9a1 1 0 0 0 -1 1v2h8v-2a1 1 0 0 0 -1 -1h-2v-1.09a6 6 0 0 0 3.7 -2.186l4.929 -3.943A1 1 0 0 0 22 8.5v-4a1 1 0 0 0 -1 -1zM4 8.02V5.5h2v4c0 0.042 0.006 0.083 0.006 0.125zm16 0 -2.006 1.605c0 -0.042 0.006 -0.083 0.006 -0.125v-4h2z" fill="currentColor" stroke-width="1"></path></svg>