<svg xmlns="http://www.w3.org/2000/svg" fill="none" viewBox="0 0 24 24" id="Monitor-4--Streamline-Nova"><desc>Monitor 4 Streamline Icon: https://streamlinehq.com</desc><path fill="currentColor" fill-rule="evenodd" d="M1 3c0 -1.10457 0.89543 -2 2 -2h18c1.1046 0 2 0.89543 2 2v12.1802c0 0.9534 -0.6729 1.7742 -1.6078 1.9612L13 18.8198v1.1969c3.1857 0.1069 5.4885 0.7017 6.3714 1.0548l-0.7428 1.857C17.9348 22.6509 15.498 22 12 22c-3.49802 0 -5.93476 0.6509 -6.62861 0.9285l-0.74278 -1.857c0.88292 -0.3531 3.18573 -0.9479 6.37139 -1.0548v-1.1969l-8.39223 -1.6784C1.67292 16.9544 1 16.1336 1 15.1802V3Zm19 1H4v10h16V4Z" clip-rule="evenodd" stroke-width="1"></path></svg>