<svg xmlns="http://www.w3.org/2000/svg" fill="none" viewBox="0 0 24 24" id="Lock-Square-1--Streamline-Nova"><desc>Lock Square 1 Streamline Icon: https://streamlinehq.com</desc><path fill="currentColor" fill-rule="evenodd" d="M12 3c-1.1935 0 -2.33807 0.47411 -3.18198 1.31802C7.97411 5.16193 7.5 6.30653 7.5 7.5V10h9V7.5c0 -1.19347 -0.4741 -2.33807 -1.318 -3.18198C14.3381 3.47411 13.1935 3 12 3ZM4.5 7.5V10H3c-0.55228 0 -1 0.4477 -1 1v12c0 0.5523 0.44772 1 1 1h18c0.5523 0 1 -0.4477 1 -1V11c0 -0.5523 -0.4477 -1 -1 -1h-1.5V7.5c0 -1.98912 -0.7902 -3.89678 -2.1967 -5.3033C15.8968 0.790176 13.9891 0 12 0S8.10322 0.790176 6.6967 2.1967C5.29018 3.60322 4.5 5.51088 4.5 7.5ZM14 17c0 1.1046 -0.8954 2 -2 2s-2 -0.8954 -2 -2 0.8954 -2 2 -2 2 0.8954 2 2Z" clip-rule="evenodd" stroke-width="1"></path></svg>