<svg xmlns="http://www.w3.org/2000/svg" fill="none" viewBox="0 0 24 24" id="Business-Promotion--Streamline-Nova"><desc>Business Promotion Streamline Icon: https://streamlinehq.com</desc><path fill="currentColor" fill-rule="evenodd" d="M21 5V0l-6 7h3v5l6 -7h-3ZM9.71323 3.359l1.58997 2.544 -0.0001 0.0001 6.359 10.177 0.0043 0.007 1.5856 2.5369 -1.696 1.06 -1.2022 -1.9235 -9.14301 2.3462 0.5952 0.9523 0.00016 0.0002c0.13914 0.2228 0.32081 0.416 0.53462 0.5686 0.21382 0.1525 0.45559 0.2615 0.71151 0.3206 0.25592 0.0591 0.52098 0.0673 0.78005 0.0239 0.25897 -0.0433 0.50697 -0.1372 0.72967 -0.2763l0.0001 -0.0001 0.4239 -0.2649 1.06 1.696 -0.424 0.265 -0.0002 0.0001c-0.4455 0.2783 -0.9415 0.4662 -1.4596 0.5528 -0.51812 0.0867 -1.04824 0.0704 -1.56009 -0.0478 -0.51184 -0.1183 -0.99539 -0.3362 -1.42301 -0.6413 -0.42755 -0.3051 -0.79083 -0.6913 -1.0691 -1.1368l-0.00015 -0.0002 -0.93158 -1.4906 -2.33971 0.6004c-0.42204 0.1083 -0.86562 -0.0691 -1.09655 -0.4386L0.152008 18.246c-0.2295006 -0.3672 -0.1965895 -0.8404 0.081533 -1.1723L9.2223 6.3471 8.01724 4.419l1.69599 -1.06Z" clip-rule="evenodd" stroke-width="1"></path></svg>