<svg xmlns="http://www.w3.org/2000/svg" fill="none" viewBox="0 0 24 24"><path fill="currentColor" fill-rule="evenodd" d="M1 12C1 5.92487 5.92487 1 12 1C18.0751 1 23 5.92487 23 12C23 18.0751 18.0751 23 12 23C5.92487 23 1 18.0751 1 12ZM7.70711 17.7071L17.7071 7.70711L16.2929 6.29289L6.29289 16.2929L7.70711 17.7071ZM6.37876 8.5L7.08586 7.79289L7.79297 7.08579L8.50008 6.37868L9.20718 7.08579L9.91429 7.79289L10.6214 8.5L9.91429 9.20711L9.20718 9.91421L8.50008 10.6213L7.79297 9.91421L7.08586 9.20711L6.37876 8.5ZM14.0859 14.7929L13.3788 15.5L14.0859 16.2071L14.793 16.9142L15.5001 17.6213L16.2072 16.9142L16.9143 16.2071L17.6214 15.5L16.9143 14.7929L16.2072 14.0858L15.5001 13.3787L14.793 14.0858L14.0859 14.7929Z" clip-rule="evenodd"></path></svg>