<svg xmlns="http://www.w3.org/2000/svg" viewBox="-0.5 -0.5 150 150" height="150" width="150"><g fill="#000000"><path d="M24.719 97.006c-2.935 0.797 -11.272 3.427 -12.531 3.859 0 -8.836 1.415 -73.964 1.557 -80.46a0.089 0.089 0 0 0 -0.171 0c-0.387 5.766 -1.758 76.735 -1.728 80.564 -1.185 0.402 -6.556 2.235 -8.068 2.742 -0.089 0 -0.052 0.171 0 0.142 2.63 -0.812 7.971 -2.593 8.031 -2.607q0 3.889 0.089 7.785a0.119 0.119 0 0 0 0.238 0v-7.904c2.466 -0.82 10.884 -3.353 12.628 -3.814a0.164 0.164 0 0 0 -0.045 -0.305zm58.259 -14.855s-1.773 7.659 -6.392 5.215 -1.632 -7.383 -1.557 -12.211 -3.725 -8.12 -3.725 -8.12 1.14 9.119 -4.396 10.356 -10.08 -3.934 -8.486 -11.249S61.09 54.75 61.045 52.195s-0.991 -3.405 -0.991 -3.405 0.82 5.759 -5.535 8.94c-6.191 3.099 -14.624 8.374 -14.766 18.536 -0.142 10.356 2.16 13.477 -0.067 13.902 -3.353 0.641 -1.281 -4.686 -2.272 -8.307A8.635 8.635 0 0 0 33.227 76.735s3.189 5.148 -0.216 10.333 -10.929 11.54 -1.065 20.212c0 0 -0.849 -3.226 0.998 -5.282s2.66 -2.451 3.561 -4.544a5.841 5.841 0 0 0 0.626 -2.339s4.686 6.318 8.441 2.697 1.661 -8.664 3.598 -11.175 2.719 -2.414 2.719 -2.414 -2.719 3.688 0.358 8.784 7.808 0.067 8.798 -3.725S65.411 86.42 65.411 86.42s-3.867 0.946 -3.047 4.589 1.661 3.725 1.661 3.725 0.745 -3.189 4.47 -2.339 5.55 4.328 7.711 3.904 2.861 -3.122 2.861 -3.122 2.771 4.261 2.421 6.526 -2.421 4.895 -2.421 4.895a8.486 8.486 0 0 0 8.195 -6.526c1.892 -6.772 -4.284 -15.921 -4.284 -15.921z" stroke-width="1"></path><path d="M77.815 81.034a2.868 2.868 0 0 0 1.415 -3.911 5.394 5.394 0 0 1 -0.812 -2.324 5.863 5.863 0 0 0 -1.348 3.338c-0.216 2.168 0.745 2.898 0.745 2.898zM64.457 54.541c-0.283 -1.758 2.071 -2.131 1.751 -4.582s-2.235 -2.66 -2.235 -2.66l0.484 0.939c0.477 0.946 0.402 2.414 -0.32 4.068s0.32 2.235 0.32 2.235z" stroke-width="1"></path><path d="M93.252 75.521a25.658 25.658 0 0 0 -3.561 1.021v-3.546h0.112c0.745 0 0.432 -6.586 -0.045 -8.866 0.179 -19.37 0.626 -54.385 0.626 -54.758a0.089 0.089 0 0 0 -0.179 0c-0.745 19.854 -0.834 40.848 -0.82 53.983 -0.387 -0.052 -1.259 0.589 -2.235 1.445L74.083 34.955c0.231 -9.149 0.41 -19.124 0.41 -28.109 0 -0.104 -0.164 -0.104 -0.171 0 -0.052 0.924 -0.372 14.155 -0.693 27.759L57.507 31.29c0.276 -8.761 0.544 -17.262 0.559 -18.625 0 -0.06 -0.089 -0.06 -0.097 0 -0.134 3.122 -0.507 9.223 -0.827 18.625l-14.855 2.637c0.045 -9.618 0 -17.21 0 -17.455a0.06 0.06 0 0 0 -0.112 0c-0.052 0.745 -0.156 8.314 -0.268 17.306L27.565 25.695c0.037 -3.271 0.06 -5.275 0.06 -5.394a0.112 0.112 0 1 0 -0.224 0c0 0.745 0 2.622 -0.052 5.342l-11.92 -0.253a0.745 0.745 0 0 0 -0.045 1.527l11.92 0.343c-0.224 18.029 -0.924 63.325 -0.939 63.735 0 0.134 0.201 0.134 0.201 0 0.156 -3.427 0.745 -46.436 0.954 -63.645l14.364 8.195c-0.171 13.894 -0.35 30.322 -0.358 30.59 0 0.097 0.149 0.097 0.156 0 0.387 -7.942 0.544 -20.257 0.596 -30.642l14.811 -2.6c-0.164 5.215 -0.313 11.369 -0.387 18.536 0 0.089 0.142 0.089 0.142 0 0.082 -2.332 0.35 -10.385 0.611 -18.573l16.129 3.613c-0.343 14.438 -0.67 28.779 -0.678 29.003a0.097 0.097 0 0 0 0.194 0c0.074 -2.175 0.551 -13.969 0.924 -28.198l11.92 28.668c-1.49 1.378 -2.786 2.809 -2.786 2.809 -0.313 0.849 4.805 3.546 6.265 4.165v3.725c-0.551 0.186 -5.26 1.892 -7.115 2.384a0.089 0.089 0 0 0 0.045 0.171c1.863 -0.462 10.043 -3.107 10.907 -3.479 0.127 -0.052 0.082 -0.201 -0.007 -0.194zm-37.421 28.958a1.676 1.676 0 0 0 -0.44 1.565 1.706 1.706 0 0 0 1.043 1.058 8.053 8.053 0 0 0 2.913 0.313s3.353 2.756 3.442 2.838c-0.745 0.618 -1.781 0.246 -2.622 0.194 -0.142 0 -0.142 0.186 0 0.231a3.099 3.099 0 0 0 2.868 -0.246 5.9 5.9 0 0 0 0.566 0.425 0.082 0.082 0 0 0 0.097 -0.127 5.804 5.804 0 0 0 -0.492 -0.462 1.624 1.624 0 0 0 -0.499 -2.481 6.213 6.213 0 0 0 -3.285 -0.641c-1.073 -0.879 -2.146 -1.758 -3.233 -2.63a1.49 1.49 0 0 1 0.328 -0.201 2.533 2.533 0 0 1 2.235 0.32c0.052 0 0.097 0 0.06 -0.074a2.101 2.101 0 0 0 -2.794 -0.201l-0.745 -0.589c-0.067 -0.052 -0.156 0.037 -0.097 0.089zm7.45 4.589a1.289 1.289 0 0 1 -0.313 1.021l-3.248 -2.675c1.371 0.015 3.375 0.261 3.554 1.654zm-7.249 -4.425c0.991 0.849 1.997 1.676 2.98 2.511a12.263 12.263 0 0 1 -2.101 -0.164c-1.505 -0.38 -1.617 -1.587 -0.887 -2.347z" stroke-width="1"></path><path d="M98.802 123.998c-1.095 -0.946 -16.628 -12.337 -18.036 -13.291v-1.237c0 -0.015 -14.274 -10.624 -14.364 -10.601 -1.937 0.499 -26.217 6.705 -27.781 7.174a0.089 0.089 0 0 0 -0.06 0.134v0.551c-0.663 0.216 -9.096 2.652 -9.096 2.749 0 1.55 0.224 4.671 0.224 4.686 -0.194 0 -5.498 1.073 -5.52 1.125s-0.067 4.202 0.045 5.029c0 0.037 27.93 21.918 27.982 21.91 0.931 -0.238 13.082 -4.053 14.155 -4.321a0.142 0.142 0 0 0 0.097 -0.164c-0.06 -0.343 -0.089 -0.678 -0.127 -1.021 0 0 2.056 0.872 2.123 0.849 3.762 -1.155 13.41 -4.224 14.46 -4.582a0.283 0.283 0 0 0 0.119 -0.164v-0.901s1.326 0.551 1.386 0.529c3.725 -1.356 13.149 -4.515 14.155 -4.887a0.119 0.119 0 0 0 0.074 -0.149c0.067 -0.194 0.164 -2.727 0.194 -3.315a0.089 0.089 0 0 0 -0.03 -0.104zm-0.298 0c-0.209 0.045 -9.044 2.593 -9.745 2.853 -0.045 -0.402 0 -3.725 0 -3.725 -0.231 -0.298 -5.617 -4.552 -6.496 -5.26 0.901 -0.186 4.686 -1.49 5.722 -1.743 2.265 1.684 9.901 7.48 10.519 7.904zm-19.37 6.75L70.775 133.05c0.134 -0.559 -0.082 -4.679 -0.082 -4.731l8.568 -2.332c-0.015 0.194 -0.201 4.664 -0.164 4.79zm-8.515 -2.689c-0.134 -0.186 -9.566 -7.122 -10.639 -7.919l5.535 -1.43a1.281 1.281 0 0 0 -0.611 1.408c0.156 0.656 0.879 1.237 2.235 1.244 0.365 0 0.745 -0.037 1.117 -0.074 0.134 0.119 2.086 1.751 2.98 2.429a3.785 3.785 0 0 1 -2.19 0.082 0.089 0.089 0 0 0 -0.045 0.171 3.628 3.628 0 0 0 2.451 -0.089c0.231 0.179 0.462 0.365 0.7 0.536s0.298 -0.142 0.149 -0.253l-0.581 -0.454a1.207 1.207 0 0 0 0.447 -1.393c-0.328 -0.983 -1.445 -1.363 -2.384 -1.415a7.495 7.495 0 0 0 -1.408 0.089c-0.395 -0.335 -2.079 -1.825 -2.54 -2.235 0.276 -0.149 2.354 -0.745 3.054 -0.946 0 0 9.797 7.674 10.199 7.867 0.045 0 0.104 0 0.074 -0.074 -0.224 -0.32 -9.216 -7.361 -9.923 -7.882 1.907 -0.507 9.134 -2.511 9.357 -2.57 0 0 9.484 7.793 9.759 7.971 -3.017 0.924 -15.407 4.328 -17.776 4.969zm-24.026 -4.209c-0.268 0 -2.98 0.529 -3.256 0.589 0.045 -0.82 0.298 -4.82 0.328 -5.021 0.901 -0.119 4.619 -0.745 4.872 -0.82l0.328 0.276a8.091 8.091 0 0 0 -2.026 0.291s-0.261 4.507 -0.283 4.716zm0 0.142c0 0.179 0 0.35 -0.06 0.521s3.546 2.98 4.001 3.353c-0.566 0.134 -5.349 1.579 -8.359 1.691 -0.32 -0.246 -6.057 -4.835 -8.582 -6.906 0.894 -0.104 5.692 -1.162 5.692 -1.162 0.387 0.298 3.025 2.384 3.926 3.174a24.287 24.287 0 0 0 3.338 -0.641zm0.395 -4.649s1.877 -0.253 2.153 -0.246c0 0 3.345 2.868 3.375 2.861 2.384 -0.529 4.813 -1.14 7.182 -1.751L70.276 128.14c-1.229 0.328 -9.365 2.578 -9.387 2.6zm15.541 -0.127c-0.074 0 -9.968 2.57 -10.013 2.645l0.074 -5.215c3.285 -0.641 6.534 -1.445 9.774 -2.302 -0.112 0.425 0.037 4.515 0.119 4.902zM71.52 116.868c-0.551 0.149 -6.429 1.706 -8.828 2.332 0 -0.387 -0.074 -4.47 -0.134 -4.865 0 0 6.385 -1.751 9.238 -2.511 -0.022 0.209 -0.387 4.239 -0.276 5.044zm-5.878 2.026c0.425 0.454 1.989 1.877 2.317 2.16a4.366 4.366 0 0 1 -1.915 -0.097c-1.229 -0.402 -1.229 -1.527 -0.417 -2.064zm2.98 2.377a4.723 4.723 0 0 1 2.064 0.142c1.237 0.432 1.55 1.617 0.745 2.168 -0.872 -0.708 -2.749 -2.265 -2.801 -2.309zm12.27 -6.958c-0.06 -0.805 -0.142 -3.025 -0.134 -3.33 2.317 1.654 4.656 3.278 6.958 4.962 -0.969 0.276 -4.701 1.49 -5.61 1.81 -0.395 -0.32 -2.98 -2.414 -3.405 -2.6 0.678 -0.194 1.356 -0.387 2.012 -0.633 0.06 -0.015 0.194 -0.134 0.186 -0.209zm-0.216 0 -9 2.496c0 -0.805 0.238 -4.828 0.305 -5.014 0.06 0 6.459 -1.676 8.523 -2.131 -0.045 0.745 0.179 4.664 0.179 4.664zM66.402 99.085c1.758 1.49 13.09 9.685 13.954 10.341 -2.801 0.626 -5.573 1.334 -8.344 2.071 -0.842 -0.633 -13.045 -10.177 -13.246 -10.318 0.395 -0.074 5.506 -1.408 7.636 -2.093zm-7.927 2.235c0.372 0.358 12.3 9.685 13.209 10.318l-9.365 2.533c-0.834 -0.67 -12.717 -9.558 -13.596 -10.341q4.917 -1.259 9.752 -2.511zm-10.11 2.6c0.901 0.633 13.254 10.005 13.715 10.311 -1.214 0.32 -7.636 1.922 -9.633 2.339L38.673 106.237c1.401 -0.283 9.573 -2.317 9.692 -2.347zm-9.782 3.062c0.045 1.17 0.082 2.235 0.127 3.479L48.254 118.455c-0.171 0 -3.829 0.589 -4.775 0.79 -0.067 0 -13.723 -9.685 -13.723 -9.685 1.535 -0.387 8.173 -2.429 8.828 -2.607zM24.585 115.378c0.097 0 4.932 -0.969 5.17 -0.998 0 0 7.994 6.012 9.417 7.092 -0.961 0.074 -4.88 0.879 -5.9 0.983 -0.983 -0.812 -8.24 -6.772 -8.687 -7.077zm9.059 12.211c0 -0.402 -0.216 -4.06 -0.268 -4.857 0.551 0.454 6.288 5.118 8.62 6.966 0 0 0.246 4.299 0.276 4.656 -0.35 -0.253 -6.102 -4.723 -8.62 -6.765zm8.769 2.235a82.323 82.323 0 0 0 8.284 -1.766c0.447 0.35 8.851 6.705 9.573 7.212 -1.341 0.32 -7.927 1.81 -7.949 1.81 -3.412 -2.235 -6.683 -4.723 -9.901 -7.256zm9.864 12.196s0.06 -4.716 0.082 -4.753c0.603 -0.082 6.608 -1.49 7.971 -1.795a4.217 4.217 0 0 1 0.872 0.44l4.664 -1.341c0.209 1.036 0.104 2.101 0.283 3.129 -0.864 0.313 -12.844 3.941 -13.864 4.321zm9.096 -6.295s-0.164 -3.151 -0.253 -4.775q4.649 -1.296 9.305 -2.563l0.231 4.694zm21.396 -2.98c-1.877 0.566 -13.254 4.187 -14.267 4.515 -0.06 -1.103 -0.246 -3.367 -0.261 -3.382s10.162 -2.682 14.595 -4.098c-0.06 0.238 -0.052 2.496 -0.06 2.987zm-3.494 -2.034c0 -0.112 0.104 -4.597 0.142 -4.798 1.073 -0.291 7.145 -1.982 9.096 -2.563a25.33 25.33 0 0 0 0.171 4.597zM88.879 128.14a10.43 10.43 0 0 0 -0.112 -1.132c0.641 -0.045 9.529 -2.585 9.767 -2.682 0 0.529 -0.149 2.883 -0.119 3.092 -3.651 1.356 -12.963 4.425 -13.902 4.768 0 -0.887 0.052 -2.838 0.052 -2.838s4.306 -1.17 4.314 -1.207zm26.544 -109.835v-0.104a0.678 0.678 0 0 0 -1.192 0.44 0.745 0.745 0 0 1 1.192 -0.335zm2.362 1.527a0.142 0.142 0 0 0 -0.216 0 3.353 3.353 0 0 0 0.104 0.857c0 0.104 0.194 0.082 0.186 0a3.397 3.397 0 0 0 -0.074 -0.857zm-2.891 -0.462a0.104 0.104 0 0 0 -0.156 0 2.98 2.98 0 0 0 0 1.11c0 0.089 0.171 0.074 0.164 0a6.213 6.213 0 0 0 -0.007 -1.11zm1.572 3.338v-0.06c-0.887 0 -0.901 -0.209 -0.916 -0.224s0.514 -1.334 0.611 -1.617c0 -0.037 -0.052 -0.067 -0.067 0 -0.134 0.268 -0.849 1.736 -0.827 1.803 0.067 0.186 0.954 0.171 1.199 0.097zm1.818 1.08a2.324 2.324 0 0 1 0.231 0.365c-0.335 0.119 -0.305 1.088 0.209 1.036a0.276 0.276 0 0 0 0.268 -0.246c0.015 -0.358 -0.589 -1.028 -0.708 -1.155zm10.378 14.386a17.776 17.776 0 0 1 -5.699 0.134v0.06c0.961 0.216 3.963 0.685 5.751 0 0.067 -0.067 0.022 -0.209 -0.052 -0.194zm-13.753 -0.372a9.29 9.29 0 0 1 -4.947 -0.194c-0.052 0 -0.067 0.06 0 0.082a7.89 7.89 0 0 0 5.014 0.253c0.045 -0.022 0.007 -0.164 -0.067 -0.142zm3.248 -3.725c-0.529 0.343 -4.016 15.138 -4.068 15.541s2.369 4.023 2.526 4.023a40.007 40.007 0 0 0 4.47 -2.876c0.238 -0.291 -0.797 -16.047 -0.931 -16.442s-1.997 -0.246 -1.997 -0.246z" stroke-width="1"></path><path d="M140.172 19.601c-3.442 -2.391 -11.399 -7.025 -11.488 -7.063s-0.119 -0.06 -1.05 0.589a8.664 8.664 0 0 0 -1.959 -2.012 1.728 1.728 0 0 0 -1.788 0 6.429 6.429 0 0 0 -1.706 1.281 5.64 5.64 0 0 0 -2.458 0.395s-2.146 -4.522 -5.453 -3.457 -1.311 5.111 -1.311 5.111a3.934 3.934 0 0 0 -0.253 0.313 3.725 3.725 0 0 0 -0.544 -0.521c-0.38 -0.194 -5.215 1.006 -7.599 2.026a28.928 28.928 0 0 0 -7.793 5.081c-1.676 1.915 -1.944 2.98 -1.423 5.215 1.311 5.684 5.602 11.086 10.363 14.527 -0.291 2.012 -0.529 4.023 -0.648 6.049 -0.298 4.857 0.469 7.182 2.861 9.014 -5.476 16.546 -2.302 60.345 -2.302 60.345a2.905 2.905 0 0 0 1.49 0.745c0.037 0.417 0.149 1.542 0.164 1.691a14.989 14.989 0 0 1 -2.153 1.356 1.244 1.244 0 0 0 -0.849 1.259c-0.104 0.656 2.771 0.626 3.576 0.551s0.834 -0.603 0.998 -0.67 0.134 0.32 0.112 0.521 0.745 0.224 1.214 0.231 0.41 -4.544 0.44 -4.835a6.511 6.511 0 0 0 1.49 -0.395c5.327 -14.304 5.751 -23.356 5.751 -23.356 -1.915 -15.138 -1.565 -25.434 -0.998 -25.33s-0.358 3.971 0.745 18.059 5.722 31.849 5.722 31.849a16.293 16.293 0 0 0 1.825 0.224c0.045 0.447 0.179 1.602 0.194 1.743a15.272 15.272 0 0 1 -2.093 1.304 1.229 1.229 0 0 0 -0.842 1.259c-0.112 0.656 2.764 0.626 3.576 0.551s0.827 -0.603 0.991 -0.67 0.134 0.32 0.112 0.521 0.745 0.224 1.214 0.231 0.06 -2.54 0.521 -4.91a4.597 4.597 0 0 0 1.311 -0.261s2.123 -5.215 3.382 -27.908c1.162 -20.86 -0.924 -31.364 -1.266 -32.929a2.92 2.92 0 0 0 1.49 -2.451c0 -0.298 -0.305 -12.188 -0.372 -13.119a51.606 51.606 0 0 0 9.037 -8.53 11.972 11.972 0 0 0 2.742 -5.371c0.678 -3.926 -1.728 -6.012 -4.969 -8.255zm-16.278 -8.344a1.557 1.557 0 0 1 1.93 0.38 22.484 22.484 0 0 0 1.676 1.594 4.105 4.105 0 0 0 -1.49 2.384 2.771 2.771 0 0 0 -0.79 -1.937 4.984 4.984 0 0 0 -2.898 -1.274 8.664 8.664 0 0 1 1.572 -1.147zm0.112 15.645a0.097 0.097 0 0 0 -0.156 0l-0.544 0.559c-0.127 -0.745 -0.305 -2.295 -0.291 -2.302 0.372 -0.224 2.66 -4.924 2.98 -8.359a32.594 32.594 0 0 0 6.362 7.688c0.358 0.32 2.019 1.654 2.056 1.676 -0.142 0.052 -8.791 2.563 -9.126 2.742 -0.425 -0.708 -0.872 -1.341 -1.281 -2.019zm1.244 2.406c-0.492 0.693 -2.518 3.174 -2.935 3.799a27.692 27.692 0 0 1 -1.788 -2.876 45.885 45.885 0 0 0 3.375 -3.114c0.447 0.715 0.864 1.468 1.348 2.175zM114.141 16.017c0.663 -0.134 0.745 1.699 3.643 2.131a0.812 0.812 0 0 0 -0.618 0.328s0.983 -0.41 1.222 0.335c0 0.045 0.119 0 0.127 -0.037a0.581 0.581 0 0 0 -0.417 -0.603 10.214 10.214 0 0 0 1.304 0.045c1.773 -0.037 0.976 2.079 1.535 2.183 0.268 0.052 0.305 -0.216 0.574 -0.507s0.805 -0.641 1.237 -0.305c1.14 0.901 -0.372 2.526 -0.372 2.526a24.391 24.391 0 0 0 0.827 5.453c-1.423 1.408 -2.905 2.615 -2.905 2.682 -0.238 0 -1.304 0.209 -1.691 0.291a23.587 23.587 0 0 1 -1.11 -2.66 7.45 7.45 0 0 0 0.067 -1.222c0 -1.095 -0.939 -0.685 -1.55 -0.857a2.406 2.406 0 0 1 -0.998 -0.596 4.276 4.276 0 0 1 -1.103 -2.235 17.627 17.627 0 0 1 -0.335 -2.928c-0.045 -1.177 -0.253 -3.859 0.566 -4.023zm1.125 13.783c-0.626 -0.253 -8.612 -4.895 -9.193 -5.409 0.536 -0.425 5.751 -3.814 7.286 -4.589 0 2.436 0.291 5.818 2.689 6.325 0.618 0.127 1.058 -0.089 1.147 0.276 0.037 0.156 0.052 0.663 0.074 1.073a0.134 0.134 0 0 0 -0.127 0c-0.305 0.35 -2.138 1.87 -2.086 1.937a3.948 3.948 0 0 1 0.209 0.387zm1.915 -1.833c0.127 0.395 1.058 1.997 1.289 2.466 0 0 -1.408 1.825 -1.632 2.235 -0.209 -0.529 -1.386 -3.047 -1.49 -3.218 0.678 -0.395 1.043 -0.976 1.833 -1.453zM110.26 119.044c-0.976 0.916 -2.526 0.216 -2.771 0 0 -0.201 -0.156 -1.401 -0.209 -1.795a22.134 22.134 0 0 0 3.144 0.112c-0.045 0.246 -0.164 1.371 -0.164 1.684zm18.118 1.117a2.347 2.347 0 0 1 -2.816 -0.045c0 -0.179 -0.179 -1.356 -0.231 -1.766 0.484 0 2.905 0.067 3.338 0 -0.052 0.41 -0.253 1.594 -0.298 1.81zm16.39 -91.769a12.918 12.918 0 0 1 -2.682 4.686 50.571 50.571 0 0 1 -8.94 8.359c-0.142 0.104 0.425 13.566 0.224 14.103a3.271 3.271 0 0 1 -1.371 1.542c-2.108 1.348 -14.155 2.235 -21.031 0.268a7.271 7.271 0 0 1 -5.096 -4.813 14.006 14.006 0 0 1 -0.499 -5.066c0.156 -3.725 0.745 -7.837 1.229 -11.443 0 0 -0.06 -0.052 -0.067 0 -0.291 1.654 -0.559 3.218 -0.797 4.887 -1.013 -0.849 -2.041 -1.602 -2.98 -2.526a25.278 25.278 0 0 1 -6.765 -10.683c-0.909 -3.174 -0.566 -3.911 0.648 -5.573a6.914 6.914 0 0 1 1.05 -1.185 29.055 29.055 0 0 1 6.303 -4.112 40.975 40.975 0 0 1 8.098 -2.399 5.558 5.558 0 0 1 0.469 0.536c-0.432 0.626 -0.998 1.706 -0.551 2.6a3.427 3.427 0 0 0 1.386 1.661v0.365c-1.401 0.708 -7.085 4.247 -7.666 4.701a0.164 0.164 0 0 0 0 0.238c2.235 1.937 8.985 5.312 9.752 5.528 0.194 0.35 1.058 2.235 1.304 2.831 0 0.06 0.119 0.097 0.156 0a6.876 6.876 0 0 1 0.767 -1.266c0.037 0.365 0.253 1.587 1.155 1.84s2.123 -1.08 2.235 -1.788c0 0.06 0.797 1.214 1.117 1.743a0.156 0.156 0 0 0 0.246 0.037c0.507 -0.648 2.429 -3.457 3.017 -4.098 0.074 -0.074 0 -0.127 -0.119 -0.365 0.305 0 10.11 -2.905 10.855 -3.315 0.082 -0.045 0 -0.171 -0.067 -0.149a13.619 13.619 0 0 0 -1.386 0.447c-2.742 -2.295 -4.664 -3.509 -7.249 -7.13 -0.946 -1.326 -1.103 -1.736 -1.49 -2.339a4.671 4.671 0 0 1 2.615 -3.665c0.544 0.32 4.91 2.682 9.394 5.565 1.982 1.274 4.716 3.084 5.96 4.835a6.012 6.012 0 0 1 0.79 5.141z" stroke-width="1"></path></g></svg>